<svg width="1401" height="1306" viewBox="0 0 1401 1306" fill="none" xmlns="http://www.w3.org/2000/svg">
<mask id="mask0_15_601" style="mask-type:alpha" maskUnits="userSpaceOnUse" x="0" y="-10" width="1401" height="1316">
<path d="M0 -10H39.5938V29.5938H0V-10Z" fill="white" fill-opacity="0.03"/>
<path d="M0 32.5266H39.5938V72.1204H0V32.5266Z" fill="white" fill-opacity="0.03"/>
<path d="M0 75.0533H39.5938V114.647H0V75.0533Z" fill="white" fill-opacity="0.03"/>
<path d="M0 117.58H39.5938V157.174H0V117.58Z" fill="white" fill-opacity="0.03"/>
<path d="M0 160.107H39.5938V199.7H0V160.107Z" fill="white" fill-opacity="0.03"/>
<path d="M0 202.633H39.5938V242.227H0V202.633Z" fill="white" fill-opacity="0.01"/>
<path d="M0 245.16H39.5938V284.754H0V245.16Z" fill="white" fill-opacity="0.03"/>
<path d="M0 287.686H39.5938V327.28H0V287.686Z" fill="white" fill-opacity="0.01"/>
<path d="M0 330.213H39.5938V369.807H0V330.213Z" fill="white" fill-opacity="0.03"/>
<path d="M0 372.74H39.5938V412.333H0V372.74Z" fill="white" fill-opacity="0.03"/>
<path d="M0 457.793H39.5938V497.387H0V457.793Z" fill="white" fill-opacity="0.01"/>
<path d="M0 500.32H39.5938V539.913H0V500.32Z" fill="white" fill-opacity="0.03"/>
<path d="M0 542.846H39.5938V582.44H0V542.846Z" fill="white" fill-opacity="0.03"/>
<path d="M0 627.899H39.5938V667.493H0V627.899Z" fill="white" fill-opacity="0.03"/>
<path d="M0 670.426H39.5938V710.02H0V670.426Z" fill="white" fill-opacity="0.01"/>
<path d="M0 712.953H39.5938V752.547H0V712.953Z" fill="white" fill-opacity="0.03"/>
<path d="M0 755.479H39.5938V795.073H0V755.479Z" fill="white" fill-opacity="0.03"/>
<path d="M0 840.533H39.5938V880.126H0V840.533Z" fill="white" fill-opacity="0.01"/>
<path d="M0 883.059H39.5938V922.653H0V883.059Z" fill="white" fill-opacity="0.03"/>
<path d="M0 925.586H39.5938V965.18H0V925.586Z" fill="white" fill-opacity="0.03"/>
<path d="M0 968.112H39.5938V1007.71H0V968.112Z" fill="white" fill-opacity="0.03"/>
<path d="M0 1010.64H39.5938V1050.23H0V1010.64Z" fill="white" fill-opacity="0.03"/>
<path d="M0 1053.17H39.5938V1092.76H0V1053.17Z" fill="white" fill-opacity="0.01"/>
<path d="M0 1095.69H39.5938V1135.29H0V1095.69Z" fill="white" fill-opacity="0.01"/>
<path d="M0 1138.22H39.5938V1177.81H0V1138.22Z" fill="white" fill-opacity="0.01"/>
<path d="M0 1180.75H39.5938V1220.34H0V1180.75Z" fill="white" fill-opacity="0.01"/>
<path d="M0 1223.27H39.5938V1262.87H0V1223.27Z" fill="white" fill-opacity="0.03"/>
<path d="M0 1265.8H39.5938V1305.39H0V1265.8Z" fill="white" fill-opacity="0.03"/>
<path d="M42.5266 -10H82.1204V29.5938H42.5266V-10Z" fill="white" fill-opacity="0.03"/>
<path d="M42.5266 32.5266H82.1204V72.1204H42.5266V32.5266Z" fill="white" fill-opacity="0.03"/>
<path d="M42.5266 75.0533H82.1204V114.647H42.5266V75.0533Z" fill="white" fill-opacity="0.01"/>
<path d="M42.5266 117.58H82.1204V157.174H42.5266V117.58Z" fill="white" fill-opacity="0.03"/>
<path d="M42.5266 160.107H82.1204V199.7H42.5266V160.107Z" fill="white" fill-opacity="0.03"/>
<path d="M42.5266 202.633H82.1204V242.227H42.5266V202.633Z" fill="white" fill-opacity="0.03"/>
<path d="M42.5266 245.16H82.1204V284.754H42.5266V245.16Z" fill="white" fill-opacity="0.01"/>
<path d="M42.5266 330.213H82.1204V369.807H42.5266V330.213Z" fill="white" fill-opacity="0.03"/>
<path d="M42.5266 372.74H82.1204V412.333H42.5266V372.74Z" fill="white" fill-opacity="0.01"/>
<path d="M42.5266 415.266H82.1204V454.86H42.5266V415.266Z" fill="white" fill-opacity="0.03"/>
<path d="M42.5266 457.793H82.1204V497.387H42.5266V457.793Z" fill="white" fill-opacity="0.03"/>
<path d="M42.5266 500.32H82.1204V539.913H42.5266V500.32Z" fill="white" fill-opacity="0.03"/>
<path d="M42.5266 585.373H82.1204V624.967H42.5266V585.373Z" fill="white" fill-opacity="0.03"/>
<path d="M42.5266 627.899H82.1204V667.493H42.5266V627.899Z" fill="white" fill-opacity="0.03"/>
<path d="M42.5266 670.426H82.1204V710.02H42.5266V670.426Z" fill="white" fill-opacity="0.03"/>
<path d="M42.5266 712.953H82.1204V752.547H42.5266V712.953Z" fill="white" fill-opacity="0.03"/>
<path d="M42.5266 755.479H82.1204V795.073H42.5266V755.479Z" fill="white" fill-opacity="0.03"/>
<path d="M42.5266 798.006H82.1204V837.6H42.5266V798.006Z" fill="white" fill-opacity="0.03"/>
<path d="M42.5266 840.533H82.1204V880.126H42.5266V840.533Z" fill="white" fill-opacity="0.01"/>
<path d="M42.5266 883.059H82.1204V922.653H42.5266V883.059Z" fill="white" fill-opacity="0.03"/>
<path d="M42.5266 925.586H82.1204V965.18H42.5266V925.586Z" fill="white" fill-opacity="0.03"/>
<path d="M42.5266 1010.64H82.1204V1050.23H42.5266V1010.64Z" fill="white" fill-opacity="0.03"/>
<path d="M42.5266 1138.22H82.1204V1177.81H42.5266V1138.22Z" fill="white" fill-opacity="0.01"/>
<path d="M42.5266 1180.75H82.1204V1220.34H42.5266V1180.75Z" fill="white" fill-opacity="0.01"/>
<path d="M85.0533 -10H124.647V29.5938H85.0533V-10Z" fill="white" fill-opacity="0.03"/>
<path d="M85.0533 32.5266H124.647V72.1204H85.0533V32.5266Z" fill="white" fill-opacity="0.01"/>
<path d="M85.0533 75.0533H124.647V114.647H85.0533V75.0533Z" fill="white" fill-opacity="0.03"/>
<path d="M85.0533 245.16H124.647V284.754H85.0533V245.16Z" fill="white" fill-opacity="0.03"/>
<path d="M85.0533 415.266H124.647V454.86H85.0533V415.266Z" fill="white" fill-opacity="0.03"/>
<path d="M85.0533 457.793H124.647V497.387H85.0533V457.793Z" fill="white" fill-opacity="0.01"/>
<path d="M85.0533 542.846H124.647V582.44H85.0533V542.846Z" fill="white" fill-opacity="0.01"/>
<path d="M85.0533 585.373H124.647V624.967H85.0533V585.373Z" fill="white" fill-opacity="0.03"/>
<path d="M85.0533 627.899H124.647V667.493H85.0533V627.899Z" fill="white" fill-opacity="0.01"/>
<path d="M85.0533 712.953H124.647V752.547H85.0533V712.953Z" fill="white" fill-opacity="0.03"/>
<path d="M85.0533 755.479H124.647V795.073H85.0533V755.479Z" fill="white" fill-opacity="0.03"/>
<path d="M85.0533 798.006H124.647V837.6H85.0533V798.006Z" fill="white" fill-opacity="0.03"/>
<path d="M85.0533 883.059H124.647V922.653H85.0533V883.059Z" fill="white" fill-opacity="0.03"/>
<path d="M85.0533 968.112H124.647V1007.71H85.0533V968.112Z" fill="white" fill-opacity="0.01"/>
<path d="M85.0533 1010.64H124.647V1050.23H85.0533V1010.64Z" fill="white" fill-opacity="0.03"/>
<path d="M85.0533 1053.17H124.647V1092.76H85.0533V1053.17Z" fill="white" fill-opacity="0.01"/>
<path d="M85.0533 1138.22H124.647V1177.81H85.0533V1138.22Z" fill="white" fill-opacity="0.03"/>
<path d="M85.0533 1180.75H124.647V1220.34H85.0533V1180.75Z" fill="white" fill-opacity="0.03"/>
<path d="M85.0533 1223.27H124.647V1262.87H85.0533V1223.27Z" fill="white" fill-opacity="0.03"/>
<path d="M85.0533 1265.8H124.647V1305.39H85.0533V1265.8Z" fill="white" fill-opacity="0.03"/>
<path d="M127.58 32.5266H167.174V72.1204H127.58V32.5266Z" fill="white" fill-opacity="0.01"/>
<path d="M127.58 75.0533H167.174V114.647H127.58V75.0533Z" fill="white" fill-opacity="0.03"/>
<path d="M127.58 117.58H167.174V157.174H127.58V117.58Z" fill="white" fill-opacity="0.01"/>
<path d="M127.58 160.107H167.174V199.7H127.58V160.107Z" fill="white" fill-opacity="0.03"/>
<path d="M127.58 202.633H167.174V242.227H127.58V202.633Z" fill="white" fill-opacity="0.03"/>
<path d="M127.58 245.16H167.174V284.754H127.58V245.16Z" fill="white" fill-opacity="0.03"/>
<path d="M127.58 287.686H167.174V327.28H127.58V287.686Z" fill="white" fill-opacity="0.03"/>
<path d="M127.58 330.213H167.174V369.807H127.58V330.213Z" fill="white" fill-opacity="0.03"/>
<path d="M127.58 372.74H167.174V412.333H127.58V372.74Z" fill="white" fill-opacity="0.03"/>
<path d="M127.58 457.793H167.174V497.387H127.58V457.793Z" fill="white" fill-opacity="0.03"/>
<path d="M127.58 542.846H167.174V582.44H127.58V542.846Z" fill="white" fill-opacity="0.03"/>
<path d="M127.58 585.373H167.174V624.967H127.58V585.373Z" fill="white" fill-opacity="0.03"/>
<path d="M127.58 627.899H167.174V667.493H127.58V627.899Z" fill="white" fill-opacity="0.03"/>
<path d="M127.58 670.426H167.174V710.02H127.58V670.426Z" fill="white" fill-opacity="0.03"/>
<path d="M127.58 712.953H167.174V752.547H127.58V712.953Z" fill="white" fill-opacity="0.01"/>
<path d="M127.58 840.533H167.174V880.126H127.58V840.533Z" fill="white" fill-opacity="0.03"/>
<path d="M127.58 883.059H167.174V922.653H127.58V883.059Z" fill="white" fill-opacity="0.01"/>
<path d="M127.58 925.586H167.174V965.18H127.58V925.586Z" fill="white" fill-opacity="0.01"/>
<path d="M127.58 968.112H167.174V1007.71H127.58V968.112Z" fill="white" fill-opacity="0.03"/>
<path d="M127.58 1010.64H167.174V1050.23H127.58V1010.64Z" fill="white" fill-opacity="0.01"/>
<path d="M127.58 1053.17H167.174V1092.76H127.58V1053.17Z" fill="white" fill-opacity="0.01"/>
<path d="M127.58 1095.69H167.174V1135.29H127.58V1095.69Z" fill="white" fill-opacity="0.03"/>
<path d="M127.58 1138.22H167.174V1177.81H127.58V1138.22Z" fill="white" fill-opacity="0.01"/>
<path d="M127.58 1180.75H167.174V1220.34H127.58V1180.75Z" fill="white" fill-opacity="0.01"/>
<path d="M127.58 1223.27H167.174V1262.87H127.58V1223.27Z" fill="white" fill-opacity="0.03"/>
<path d="M127.58 1265.8H167.174V1305.39H127.58V1265.8Z" fill="white" fill-opacity="0.01"/>
<path d="M170.107 -10H209.7V29.5938H170.107V-10Z" fill="white" fill-opacity="0.03"/>
<path d="M170.107 32.5266H209.7V72.1204H170.107V32.5266Z" fill="white" fill-opacity="0.03"/>
<path d="M170.107 117.58H209.7V157.174H170.107V117.58Z" fill="white" fill-opacity="0.03"/>
<path d="M170.107 160.107H209.7V199.7H170.107V160.107Z" fill="white" fill-opacity="0.03"/>
<path d="M170.107 245.16H209.7V284.754H170.107V245.16Z" fill="white" fill-opacity="0.03"/>
<path d="M170.107 287.686H209.7V327.28H170.107V287.686Z" fill="white" fill-opacity="0.03"/>
<path d="M170.107 330.213H209.7V369.807H170.107V330.213Z" fill="white" fill-opacity="0.03"/>
<path d="M170.107 372.74H209.7V412.333H170.107V372.74Z" fill="white" fill-opacity="0.01"/>
<path d="M170.107 500.32H209.7V539.913H170.107V500.32Z" fill="white" fill-opacity="0.01"/>
<path d="M170.107 585.373H209.7V624.967H170.107V585.373Z" fill="white" fill-opacity="0.03"/>
<path d="M170.107 627.899H209.7V667.493H170.107V627.899Z" fill="white" fill-opacity="0.03"/>
<path d="M170.107 670.426H209.7V710.02H170.107V670.426Z" fill="white" fill-opacity="0.01"/>
<path d="M170.107 755.479H209.7V795.073H170.107V755.479Z" fill="white" fill-opacity="0.03"/>
<path d="M170.107 798.006H209.7V837.6H170.107V798.006Z" fill="white" fill-opacity="0.03"/>
<path d="M170.107 840.533H209.7V880.126H170.107V840.533Z" fill="white" fill-opacity="0.03"/>
<path d="M170.107 883.059H209.7V922.653H170.107V883.059Z" fill="white" fill-opacity="0.01"/>
<path d="M170.107 925.586H209.7V965.18H170.107V925.586Z" fill="white" fill-opacity="0.03"/>
<path d="M170.107 968.112H209.7V1007.71H170.107V968.112Z" fill="white" fill-opacity="0.03"/>
<path d="M170.107 1010.64H209.7V1050.23H170.107V1010.64Z" fill="white" fill-opacity="0.01"/>
<path d="M170.107 1053.17H209.7V1092.76H170.107V1053.17Z" fill="white" fill-opacity="0.03"/>
<path d="M170.107 1138.22H209.7V1177.81H170.107V1138.22Z" fill="white" fill-opacity="0.03"/>
<path d="M170.107 1180.75H209.7V1220.34H170.107V1180.75Z" fill="white" fill-opacity="0.03"/>
<path d="M170.107 1223.27H209.7V1262.87H170.107V1223.27Z" fill="white" fill-opacity="0.03"/>
<path d="M170.107 1265.8H209.7V1305.39H170.107V1265.8Z" fill="white" fill-opacity="0.03"/>
<path d="M212.633 -10H252.227V29.5938H212.633V-10Z" fill="white" fill-opacity="0.03"/>
<path d="M212.633 32.5266H252.227V72.1204H212.633V32.5266Z" fill="white" fill-opacity="0.03"/>
<path d="M212.633 75.0533H252.227V114.647H212.633V75.0533Z" fill="white" fill-opacity="0.01"/>
<path d="M212.633 117.58H252.227V157.174H212.633V117.58Z" fill="white" fill-opacity="0.03"/>
<path d="M212.633 160.107H252.227V199.7H212.633V160.107Z" fill="white" fill-opacity="0.01"/>
<path d="M212.633 330.213H252.227V369.807H212.633V330.213Z" fill="white" fill-opacity="0.01"/>
<path d="M212.633 372.74H252.227V412.333H212.633V372.74Z" fill="white" fill-opacity="0.03"/>
<path d="M212.633 415.266H252.227V454.86H212.633V415.266Z" fill="white" fill-opacity="0.03"/>
<path d="M212.633 457.793H252.227V497.387H212.633V457.793Z" fill="white" fill-opacity="0.03"/>
<path d="M212.633 500.32H252.227V539.913H212.633V500.32Z" fill="white" fill-opacity="0.03"/>
<path d="M212.633 542.846H252.227V582.44H212.633V542.846Z" fill="white" fill-opacity="0.01"/>
<path d="M212.633 585.373H252.227V624.967H212.633V585.373Z" fill="white" fill-opacity="0.03"/>
<path d="M212.633 627.899H252.227V667.493H212.633V627.899Z" fill="white" fill-opacity="0.03"/>
<path d="M212.633 670.426H252.227V710.02H212.633V670.426Z" fill="white" fill-opacity="0.01"/>
<path d="M212.633 712.953H252.227V752.547H212.633V712.953Z" fill="white" fill-opacity="0.01"/>
<path d="M212.633 755.479H252.227V795.073H212.633V755.479Z" fill="white" fill-opacity="0.01"/>
<path d="M212.633 798.006H252.227V837.6H212.633V798.006Z" fill="white" fill-opacity="0.03"/>
<path d="M212.633 840.533H252.227V880.126H212.633V840.533Z" fill="white" fill-opacity="0.03"/>
<path d="M212.633 883.059H252.227V922.653H212.633V883.059Z" fill="white" fill-opacity="0.03"/>
<path d="M212.633 968.112H252.227V1007.71H212.633V968.112Z" fill="white" fill-opacity="0.01"/>
<path d="M212.633 1010.64H252.227V1050.23H212.633V1010.64Z" fill="white" fill-opacity="0.03"/>
<path d="M212.633 1053.17H252.227V1092.76H212.633V1053.17Z" fill="white" fill-opacity="0.03"/>
<path d="M212.633 1095.69H252.227V1135.29H212.633V1095.69Z" fill="white" fill-opacity="0.03"/>
<path d="M212.633 1138.22H252.227V1177.81H212.633V1138.22Z" fill="white" fill-opacity="0.01"/>
<path d="M212.633 1180.75H252.227V1220.34H212.633V1180.75Z" fill="white" fill-opacity="0.03"/>
<path d="M212.633 1223.27H252.227V1262.87H212.633V1223.27Z" fill="white" fill-opacity="0.03"/>
<path d="M212.633 1265.8H252.227V1305.39H212.633V1265.8Z" fill="white" fill-opacity="0.03"/>
<path d="M255.16 -10H294.754V29.5938H255.16V-10Z" fill="white" fill-opacity="0.03"/>
<path d="M255.16 32.5266H294.754V72.1204H255.16V32.5266Z" fill="white" fill-opacity="0.03"/>
<path d="M255.16 75.0533H294.754V114.647H255.16V75.0533Z" fill="white" fill-opacity="0.03"/>
<path d="M255.16 117.58H294.754V157.174H255.16V117.58Z" fill="white" fill-opacity="0.03"/>
<path d="M255.16 160.107H294.754V199.7H255.16V160.107Z" fill="white" fill-opacity="0.03"/>
<path d="M255.16 202.633H294.754V242.227H255.16V202.633Z" fill="white" fill-opacity="0.03"/>
<path d="M255.16 245.16H294.754V284.754H255.16V245.16Z" fill="white" fill-opacity="0.03"/>
<path d="M255.16 287.686H294.754V327.28H255.16V287.686Z" fill="white" fill-opacity="0.03"/>
<path d="M255.16 330.213H294.754V369.807H255.16V330.213Z" fill="white" fill-opacity="0.01"/>
<path d="M255.16 415.266H294.754V454.86H255.16V415.266Z" fill="white" fill-opacity="0.01"/>
<path d="M255.16 457.793H294.754V497.387H255.16V457.793Z" fill="white" fill-opacity="0.01"/>
<path d="M255.16 500.32H294.754V539.913H255.16V500.32Z" fill="white" fill-opacity="0.01"/>
<path d="M255.16 585.373H294.754V624.967H255.16V585.373Z" fill="white" fill-opacity="0.01"/>
<path d="M255.16 627.899H294.754V667.493H255.16V627.899Z" fill="white" fill-opacity="0.01"/>
<path d="M255.16 670.426H294.754V710.02H255.16V670.426Z" fill="white" fill-opacity="0.03"/>
<path d="M255.16 712.953H294.754V752.547H255.16V712.953Z" fill="white" fill-opacity="0.01"/>
<path d="M255.16 755.479H294.754V795.073H255.16V755.479Z" fill="white" fill-opacity="0.03"/>
<path d="M255.16 798.006H294.754V837.6H255.16V798.006Z" fill="white" fill-opacity="0.01"/>
<path d="M255.16 840.533H294.754V880.126H255.16V840.533Z" fill="white" fill-opacity="0.03"/>
<path d="M255.16 883.059H294.754V922.653H255.16V883.059Z" fill="white" fill-opacity="0.01"/>
<path d="M255.16 968.112H294.754V1007.71H255.16V968.112Z" fill="white" fill-opacity="0.01"/>
<path d="M255.16 1010.64H294.754V1050.23H255.16V1010.64Z" fill="white" fill-opacity="0.03"/>
<path d="M255.16 1053.17H294.754V1092.76H255.16V1053.17Z" fill="white" fill-opacity="0.03"/>
<path d="M255.16 1095.69H294.754V1135.29H255.16V1095.69Z" fill="white" fill-opacity="0.01"/>
<path d="M255.16 1180.75H294.754V1220.34H255.16V1180.75Z" fill="white" fill-opacity="0.03"/>
<path d="M255.16 1223.27H294.754V1262.87H255.16V1223.27Z" fill="white" fill-opacity="0.03"/>
<path d="M255.16 1265.8H294.754V1305.39H255.16V1265.8Z" fill="white" fill-opacity="0.03"/>
<path d="M297.686 -10H337.28V29.5938H297.686V-10Z" fill="white" fill-opacity="0.03"/>
<path d="M297.686 32.5266H337.28V72.1204H297.686V32.5266Z" fill="white" fill-opacity="0.01"/>
<path d="M297.686 75.0533H337.28V114.647H297.686V75.0533Z" fill="white" fill-opacity="0.01"/>
<path d="M297.686 117.58H337.28V157.174H297.686V117.58Z" fill="white" fill-opacity="0.01"/>
<path d="M297.686 160.107H337.28V199.7H297.686V160.107Z" fill="white" fill-opacity="0.01"/>
<path d="M297.686 202.633H337.28V242.227H297.686V202.633Z" fill="white" fill-opacity="0.03"/>
<path d="M297.686 287.686H337.28V327.28H297.686V287.686Z" fill="white" fill-opacity="0.01"/>
<path d="M297.686 330.213H337.28V369.807H297.686V330.213Z" fill="white" fill-opacity="0.01"/>
<path d="M297.686 372.74H337.28V412.333H297.686V372.74Z" fill="white" fill-opacity="0.03"/>
<path d="M297.686 457.793H337.28V497.387H297.686V457.793Z" fill="white" fill-opacity="0.03"/>
<path d="M297.686 500.32H337.28V539.913H297.686V500.32Z" fill="white" fill-opacity="0.03"/>
<path d="M297.686 542.846H337.28V582.44H297.686V542.846Z" fill="white" fill-opacity="0.03"/>
<path d="M297.686 585.373H337.28V624.967H297.686V585.373Z" fill="white" fill-opacity="0.03"/>
<path d="M297.686 627.899H337.28V667.493H297.686V627.899Z" fill="white" fill-opacity="0.03"/>
<path d="M297.686 712.953H337.28V752.547H297.686V712.953Z" fill="white" fill-opacity="0.01"/>
<path d="M297.686 755.479H337.28V795.073H297.686V755.479Z" fill="white" fill-opacity="0.03"/>
<path d="M297.686 798.006H337.28V837.6H297.686V798.006Z" fill="white" fill-opacity="0.03"/>
<path d="M297.686 840.533H337.28V880.126H297.686V840.533Z" fill="white" fill-opacity="0.01"/>
<path d="M297.686 925.586H337.28V965.18H297.686V925.586Z" fill="white" fill-opacity="0.03"/>
<path d="M297.686 1010.64H337.28V1050.23H297.686V1010.64Z" fill="white" fill-opacity="0.03"/>
<path d="M297.686 1053.17H337.28V1092.76H297.686V1053.17Z" fill="white" fill-opacity="0.01"/>
<path d="M297.686 1095.69H337.28V1135.29H297.686V1095.69Z" fill="white" fill-opacity="0.03"/>
<path d="M297.686 1138.22H337.28V1177.81H297.686V1138.22Z" fill="white" fill-opacity="0.03"/>
<path d="M297.686 1180.75H337.28V1220.34H297.686V1180.75Z" fill="white" fill-opacity="0.01"/>
<path d="M297.686 1265.8H337.28V1305.39H297.686V1265.8Z" fill="white" fill-opacity="0.03"/>
<path d="M340.213 -10H379.807V29.5938H340.213V-10Z" fill="white" fill-opacity="0.03"/>
<path d="M340.213 75.0533H379.807V114.647H340.213V75.0533Z" fill="white" fill-opacity="0.03"/>
<path d="M340.213 117.58H379.807V157.174H340.213V117.58Z" fill="white" fill-opacity="0.03"/>
<path d="M340.213 160.107H379.807V199.7H340.213V160.107Z" fill="white" fill-opacity="0.01"/>
<path d="M340.213 202.633H379.807V242.227H340.213V202.633Z" fill="white" fill-opacity="0.01"/>
<path d="M340.213 245.16H379.807V284.754H340.213V245.16Z" fill="white" fill-opacity="0.03"/>
<path d="M340.213 287.686H379.807V327.28H340.213V287.686Z" fill="white" fill-opacity="0.03"/>
<path d="M340.213 372.74H379.807V412.333H340.213V372.74Z" fill="white" fill-opacity="0.03"/>
<path d="M340.213 415.266H379.807V454.86H340.213V415.266Z" fill="white" fill-opacity="0.03"/>
<path d="M340.213 457.793H379.807V497.387H340.213V457.793Z" fill="white" fill-opacity="0.01"/>
<path d="M340.213 585.373H379.807V624.967H340.213V585.373Z" fill="white" fill-opacity="0.03"/>
<path d="M340.213 627.899H379.807V667.493H340.213V627.899Z" fill="white" fill-opacity="0.03"/>
<path d="M340.213 670.426H379.807V710.02H340.213V670.426Z" fill="white" fill-opacity="0.03"/>
<path d="M340.213 712.953H379.807V752.547H340.213V712.953Z" fill="white" fill-opacity="0.03"/>
<path d="M340.213 755.479H379.807V795.073H340.213V755.479Z" fill="white" fill-opacity="0.01"/>
<path d="M340.213 840.533H379.807V880.126H340.213V840.533Z" fill="white" fill-opacity="0.03"/>
<path d="M340.213 883.059H379.807V922.653H340.213V883.059Z" fill="white" fill-opacity="0.03"/>
<path d="M340.213 925.586H379.807V965.18H340.213V925.586Z" fill="white" fill-opacity="0.03"/>
<path d="M340.213 968.112H379.807V1007.71H340.213V968.112Z" fill="white" fill-opacity="0.03"/>
<path d="M340.213 1010.64H379.807V1050.23H340.213V1010.64Z" fill="white" fill-opacity="0.01"/>
<path d="M340.213 1053.17H379.807V1092.76H340.213V1053.17Z" fill="white" fill-opacity="0.03"/>
<path d="M340.213 1095.69H379.807V1135.29H340.213V1095.69Z" fill="white" fill-opacity="0.01"/>
<path d="M340.213 1138.22H379.807V1177.81H340.213V1138.22Z" fill="white" fill-opacity="0.01"/>
<path d="M340.213 1180.75H379.807V1220.34H340.213V1180.75Z" fill="white" fill-opacity="0.03"/>
<path d="M340.213 1223.27H379.807V1262.87H340.213V1223.27Z" fill="white" fill-opacity="0.01"/>
<path d="M382.74 32.5266H422.333V72.1204H382.74V32.5266Z" fill="white" fill-opacity="0.01"/>
<path d="M382.74 75.0533H422.333V114.647H382.74V75.0533Z" fill="white" fill-opacity="0.01"/>
<path d="M382.74 117.58H422.333V157.174H382.74V117.58Z" fill="white" fill-opacity="0.01"/>
<path d="M382.74 160.107H422.333V199.7H382.74V160.107Z" fill="white" fill-opacity="0.03"/>
<path d="M382.74 202.633H422.333V242.227H382.74V202.633Z" fill="white" fill-opacity="0.03"/>
<path d="M382.74 245.16H422.333V284.754H382.74V245.16Z" fill="white" fill-opacity="0.03"/>
<path d="M382.74 372.74H422.333V412.333H382.74V372.74Z" fill="white" fill-opacity="0.01"/>
<path d="M382.74 415.266H422.333V454.86H382.74V415.266Z" fill="white" fill-opacity="0.01"/>
<path d="M382.74 457.793H422.333V497.387H382.74V457.793Z" fill="white" fill-opacity="0.01"/>
<path d="M382.74 500.32H422.333V539.913H382.74V500.32Z" fill="white" fill-opacity="0.01"/>
<path d="M382.74 542.846H422.333V582.44H382.74V542.846Z" fill="white" fill-opacity="0.03"/>
<path d="M382.74 585.373H422.333V624.967H382.74V585.373Z" fill="white" fill-opacity="0.03"/>
<path d="M382.74 627.899H422.333V667.493H382.74V627.899Z" fill="white" fill-opacity="0.03"/>
<path d="M382.74 670.426H422.333V710.02H382.74V670.426Z" fill="white" fill-opacity="0.01"/>
<path d="M382.74 712.953H422.333V752.547H382.74V712.953Z" fill="white" fill-opacity="0.03"/>
<path d="M382.74 755.479H422.333V795.073H382.74V755.479Z" fill="white" fill-opacity="0.03"/>
<path d="M382.74 798.006H422.333V837.6H382.74V798.006Z" fill="white" fill-opacity="0.03"/>
<path d="M382.74 840.533H422.333V880.126H382.74V840.533Z" fill="white" fill-opacity="0.03"/>
<path d="M382.74 883.059H422.333V922.653H382.74V883.059Z" fill="white" fill-opacity="0.01"/>
<path d="M382.74 925.586H422.333V965.18H382.74V925.586Z" fill="white" fill-opacity="0.01"/>
<path d="M382.74 968.112H422.333V1007.71H382.74V968.112Z" fill="white" fill-opacity="0.03"/>
<path d="M382.74 1010.64H422.333V1050.23H382.74V1010.64Z" fill="white" fill-opacity="0.03"/>
<path d="M382.74 1053.17H422.333V1092.76H382.74V1053.17Z" fill="white" fill-opacity="0.03"/>
<path d="M382.74 1095.69H422.333V1135.29H382.74V1095.69Z" fill="white" fill-opacity="0.03"/>
<path d="M382.74 1138.22H422.333V1177.81H382.74V1138.22Z" fill="white" fill-opacity="0.03"/>
<path d="M382.74 1180.75H422.333V1220.34H382.74V1180.75Z" fill="white" fill-opacity="0.03"/>
<path d="M382.74 1223.27H422.333V1262.87H382.74V1223.27Z" fill="white" fill-opacity="0.01"/>
<path d="M382.74 1265.8H422.333V1305.39H382.74V1265.8Z" fill="white" fill-opacity="0.03"/>
<path d="M425.266 32.5266H464.86V72.1204H425.266V32.5266Z" fill="white" fill-opacity="0.03"/>
<path d="M425.266 75.0533H464.86V114.647H425.266V75.0533Z" fill="white" fill-opacity="0.01"/>
<path d="M425.266 160.107H464.86V199.7H425.266V160.107Z" fill="white" fill-opacity="0.01"/>
<path d="M425.266 202.633H464.86V242.227H425.266V202.633Z" fill="white" fill-opacity="0.01"/>
<path d="M425.266 245.16H464.86V284.754H425.266V245.16Z" fill="white" fill-opacity="0.01"/>
<path d="M425.266 287.686H464.86V327.28H425.266V287.686Z" fill="white" fill-opacity="0.03"/>
<path d="M425.266 330.213H464.86V369.807H425.266V330.213Z" fill="white" fill-opacity="0.01"/>
<path d="M425.266 372.74H464.86V412.333H425.266V372.74Z" fill="white" fill-opacity="0.03"/>
<path d="M425.266 457.793H464.86V497.387H425.266V457.793Z" fill="white" fill-opacity="0.03"/>
<path d="M425.266 542.846H464.86V582.44H425.266V542.846Z" fill="white" fill-opacity="0.01"/>
<path d="M425.266 585.373H464.86V624.967H425.266V585.373Z" fill="white" fill-opacity="0.03"/>
<path d="M425.266 670.426H464.86V710.02H425.266V670.426Z" fill="white" fill-opacity="0.01"/>
<path d="M425.266 712.953H464.86V752.547H425.266V712.953Z" fill="white" fill-opacity="0.03"/>
<path d="M425.266 755.479H464.86V795.073H425.266V755.479Z" fill="white" fill-opacity="0.03"/>
<path d="M425.266 840.533H464.86V880.126H425.266V840.533Z" fill="white" fill-opacity="0.03"/>
<path d="M425.266 883.059H464.86V922.653H425.266V883.059Z" fill="white" fill-opacity="0.01"/>
<path d="M425.266 968.112H464.86V1007.71H425.266V968.112Z" fill="white" fill-opacity="0.03"/>
<path d="M425.266 1010.64H464.86V1050.23H425.266V1010.64Z" fill="white" fill-opacity="0.03"/>
<path d="M425.266 1053.17H464.86V1092.76H425.266V1053.17Z" fill="white" fill-opacity="0.01"/>
<path d="M425.266 1138.22H464.86V1177.81H425.266V1138.22Z" fill="white" fill-opacity="0.01"/>
<path d="M425.266 1180.75H464.86V1220.34H425.266V1180.75Z" fill="white" fill-opacity="0.01"/>
<path d="M425.266 1223.27H464.86V1262.87H425.266V1223.27Z" fill="white" fill-opacity="0.03"/>
<path d="M425.266 1265.8H464.86V1305.39H425.266V1265.8Z" fill="white" fill-opacity="0.03"/>
<path d="M467.793 -10H507.387V29.5938H467.793V-10Z" fill="white" fill-opacity="0.03"/>
<path d="M467.793 32.5266H507.387V72.1204H467.793V32.5266Z" fill="white" fill-opacity="0.01"/>
<path d="M467.793 75.0533H507.387V114.647H467.793V75.0533Z" fill="white" fill-opacity="0.03"/>
<path d="M467.793 117.58H507.387V157.174H467.793V117.58Z" fill="white" fill-opacity="0.03"/>
<path d="M467.793 160.107H507.387V199.7H467.793V160.107Z" fill="white" fill-opacity="0.01"/>
<path d="M467.793 245.16H507.387V284.754H467.793V245.16Z" fill="white" fill-opacity="0.03"/>
<path d="M467.793 372.74H507.387V412.333H467.793V372.74Z" fill="white" fill-opacity="0.01"/>
<path d="M467.793 500.32H507.387V539.913H467.793V500.32Z" fill="white" fill-opacity="0.03"/>
<path d="M467.793 627.899H507.387V667.493H467.793V627.899Z" fill="white" fill-opacity="0.01"/>
<path d="M467.793 670.426H507.387V710.02H467.793V670.426Z" fill="white" fill-opacity="0.03"/>
<path d="M467.793 712.953H507.387V752.547H467.793V712.953Z" fill="white" fill-opacity="0.03"/>
<path d="M467.793 798.006H507.387V837.6H467.793V798.006Z" fill="white" fill-opacity="0.03"/>
<path d="M467.793 840.533H507.387V880.126H467.793V840.533Z" fill="white" fill-opacity="0.01"/>
<path d="M467.793 883.059H507.387V922.653H467.793V883.059Z" fill="white" fill-opacity="0.03"/>
<path d="M467.793 925.586H507.387V965.18H467.793V925.586Z" fill="white" fill-opacity="0.01"/>
<path d="M467.793 1010.64H507.387V1050.23H467.793V1010.64Z" fill="white" fill-opacity="0.03"/>
<path d="M467.793 1053.17H507.387V1092.76H467.793V1053.17Z" fill="white" fill-opacity="0.03"/>
<path d="M467.793 1138.22H507.387V1177.81H467.793V1138.22Z" fill="white" fill-opacity="0.01"/>
<path d="M467.793 1180.75H507.387V1220.34H467.793V1180.75Z" fill="white" fill-opacity="0.01"/>
<path d="M467.793 1223.27H507.387V1262.87H467.793V1223.27Z" fill="white" fill-opacity="0.01"/>
<path d="M467.793 1265.8H507.387V1305.39H467.793V1265.8Z" fill="white" fill-opacity="0.03"/>
<path d="M510.32 -10H549.913V29.5938H510.32V-10Z" fill="white" fill-opacity="0.03"/>
<path d="M510.32 32.5266H549.913V72.1204H510.32V32.5266Z" fill="white" fill-opacity="0.03"/>
<path d="M510.32 75.0533H549.913V114.647H510.32V75.0533Z" fill="white" fill-opacity="0.01"/>
<path d="M510.32 117.58H549.913V157.174H510.32V117.58Z" fill="white" fill-opacity="0.01"/>
<path d="M510.32 160.107H549.913V199.7H510.32V160.107Z" fill="white" fill-opacity="0.03"/>
<path d="M510.32 202.633H549.913V242.227H510.32V202.633Z" fill="white" fill-opacity="0.01"/>
<path d="M510.32 245.16H549.913V284.754H510.32V245.16Z" fill="white" fill-opacity="0.01"/>
<path d="M510.32 287.686H549.913V327.28H510.32V287.686Z" fill="white" fill-opacity="0.03"/>
<path d="M510.32 330.213H549.913V369.807H510.32V330.213Z" fill="white" fill-opacity="0.01"/>
<path d="M510.32 372.74H549.913V412.333H510.32V372.74Z" fill="white" fill-opacity="0.01"/>
<path d="M510.32 415.266H549.913V454.86H510.32V415.266Z" fill="white" fill-opacity="0.03"/>
<path d="M510.32 457.793H549.913V497.387H510.32V457.793Z" fill="white" fill-opacity="0.01"/>
<path d="M510.32 500.32H549.913V539.913H510.32V500.32Z" fill="white" fill-opacity="0.03"/>
<path d="M510.32 542.846H549.913V582.44H510.32V542.846Z" fill="white" fill-opacity="0.03"/>
<path d="M510.32 585.373H549.913V624.967H510.32V585.373Z" fill="white" fill-opacity="0.03"/>
<path d="M510.32 627.899H549.913V667.493H510.32V627.899Z" fill="white" fill-opacity="0.03"/>
<path d="M510.32 670.426H549.913V710.02H510.32V670.426Z" fill="white" fill-opacity="0.03"/>
<path d="M510.32 755.479H549.913V795.073H510.32V755.479Z" fill="white" fill-opacity="0.01"/>
<path d="M510.32 798.006H549.913V837.6H510.32V798.006Z" fill="white" fill-opacity="0.03"/>
<path d="M510.32 840.533H549.913V880.126H510.32V840.533Z" fill="white" fill-opacity="0.03"/>
<path d="M510.32 883.059H549.913V922.653H510.32V883.059Z" fill="white" fill-opacity="0.01"/>
<path d="M510.32 925.586H549.913V965.18H510.32V925.586Z" fill="white" fill-opacity="0.01"/>
<path d="M510.32 968.112H549.913V1007.71H510.32V968.112Z" fill="white" fill-opacity="0.01"/>
<path d="M510.32 1010.64H549.913V1050.23H510.32V1010.64Z" fill="white" fill-opacity="0.01"/>
<path d="M510.32 1095.69H549.913V1135.29H510.32V1095.69Z" fill="white" fill-opacity="0.01"/>
<path d="M510.32 1138.22H549.913V1177.81H510.32V1138.22Z" fill="white" fill-opacity="0.01"/>
<path d="M510.32 1180.75H549.913V1220.34H510.32V1180.75Z" fill="white" fill-opacity="0.03"/>
<path d="M510.32 1223.27H549.913V1262.87H510.32V1223.27Z" fill="white" fill-opacity="0.03"/>
<path d="M510.32 1265.8H549.913V1305.39H510.32V1265.8Z" fill="white" fill-opacity="0.01"/>
<path d="M552.846 -10H592.44V29.5938H552.846V-10Z" fill="white" fill-opacity="0.03"/>
<path d="M552.846 75.0533H592.44V114.647H552.846V75.0533Z" fill="white" fill-opacity="0.03"/>
<path d="M552.846 117.58H592.44V157.174H552.846V117.58Z" fill="white" fill-opacity="0.03"/>
<path d="M552.846 160.107H592.44V199.7H552.846V160.107Z" fill="white" fill-opacity="0.03"/>
<path d="M552.846 202.633H592.44V242.227H552.846V202.633Z" fill="white" fill-opacity="0.03"/>
<path d="M552.846 245.16H592.44V284.754H552.846V245.16Z" fill="white" fill-opacity="0.03"/>
<path d="M552.846 287.686H592.44V327.28H552.846V287.686Z" fill="white" fill-opacity="0.03"/>
<path d="M552.846 330.213H592.44V369.807H552.846V330.213Z" fill="white" fill-opacity="0.03"/>
<path d="M552.846 372.74H592.44V412.333H552.846V372.74Z" fill="white" fill-opacity="0.03"/>
<path d="M552.846 415.266H592.44V454.86H552.846V415.266Z" fill="white" fill-opacity="0.03"/>
<path d="M552.846 457.793H592.44V497.387H552.846V457.793Z" fill="white" fill-opacity="0.01"/>
<path d="M552.846 500.32H592.44V539.913H552.846V500.32Z" fill="white" fill-opacity="0.03"/>
<path d="M552.846 542.846H592.44V582.44H552.846V542.846Z" fill="white" fill-opacity="0.03"/>
<path d="M552.846 585.373H592.44V624.967H552.846V585.373Z" fill="white" fill-opacity="0.03"/>
<path d="M552.846 627.899H592.44V667.493H552.846V627.899Z" fill="white" fill-opacity="0.03"/>
<path d="M552.846 712.953H592.44V752.547H552.846V712.953Z" fill="white" fill-opacity="0.03"/>
<path d="M552.846 755.479H592.44V795.073H552.846V755.479Z" fill="white" fill-opacity="0.01"/>
<path d="M552.846 840.533H592.44V880.126H552.846V840.533Z" fill="white" fill-opacity="0.03"/>
<path d="M552.846 883.059H592.44V922.653H552.846V883.059Z" fill="white" fill-opacity="0.01"/>
<path d="M552.846 925.586H592.44V965.18H552.846V925.586Z" fill="white" fill-opacity="0.01"/>
<path d="M552.846 968.112H592.44V1007.71H552.846V968.112Z" fill="white" fill-opacity="0.03"/>
<path d="M552.846 1010.64H592.44V1050.23H552.846V1010.64Z" fill="white" fill-opacity="0.01"/>
<path d="M552.846 1095.69H592.44V1135.29H552.846V1095.69Z" fill="white" fill-opacity="0.01"/>
<path d="M552.846 1138.22H592.44V1177.81H552.846V1138.22Z" fill="white" fill-opacity="0.03"/>
<path d="M552.846 1180.75H592.44V1220.34H552.846V1180.75Z" fill="white" fill-opacity="0.01"/>
<path d="M552.846 1223.27H592.44V1262.87H552.846V1223.27Z" fill="white" fill-opacity="0.01"/>
<path d="M552.846 1265.8H592.44V1305.39H552.846V1265.8Z" fill="white" fill-opacity="0.03"/>
<path d="M595.373 32.5266H634.967V72.1204H595.373V32.5266Z" fill="white" fill-opacity="0.03"/>
<path d="M595.373 75.0533H634.967V114.647H595.373V75.0533Z" fill="white" fill-opacity="0.03"/>
<path d="M595.373 202.633H634.967V242.227H595.373V202.633Z" fill="white" fill-opacity="0.03"/>
<path d="M595.373 245.16H634.967V284.754H595.373V245.16Z" fill="white" fill-opacity="0.03"/>
<path d="M595.373 287.686H634.967V327.28H595.373V287.686Z" fill="white" fill-opacity="0.03"/>
<path d="M595.373 330.213H634.967V369.807H595.373V330.213Z" fill="white" fill-opacity="0.01"/>
<path d="M595.373 372.74H634.967V412.333H595.373V372.74Z" fill="white" fill-opacity="0.03"/>
<path d="M595.373 415.266H634.967V454.86H595.373V415.266Z" fill="white" fill-opacity="0.01"/>
<path d="M595.373 585.373H634.967V624.967H595.373V585.373Z" fill="white" fill-opacity="0.01"/>
<path d="M595.373 627.899H634.967V667.493H595.373V627.899Z" fill="white" fill-opacity="0.03"/>
<path d="M595.373 670.426H634.967V710.02H595.373V670.426Z" fill="white" fill-opacity="0.03"/>
<path d="M595.373 712.953H634.967V752.547H595.373V712.953Z" fill="white" fill-opacity="0.03"/>
<path d="M595.373 755.479H634.967V795.073H595.373V755.479Z" fill="white" fill-opacity="0.01"/>
<path d="M595.373 798.006H634.967V837.6H595.373V798.006Z" fill="white" fill-opacity="0.03"/>
<path d="M595.373 840.533H634.967V880.126H595.373V840.533Z" fill="white" fill-opacity="0.01"/>
<path d="M595.373 883.059H634.967V922.653H595.373V883.059Z" fill="white" fill-opacity="0.03"/>
<path d="M595.373 925.586H634.967V965.18H595.373V925.586Z" fill="white" fill-opacity="0.03"/>
<path d="M595.373 968.112H634.967V1007.71H595.373V968.112Z" fill="white" fill-opacity="0.03"/>
<path d="M595.373 1010.64H634.967V1050.23H595.373V1010.64Z" fill="white" fill-opacity="0.03"/>
<path d="M595.373 1053.17H634.967V1092.76H595.373V1053.17Z" fill="white" fill-opacity="0.01"/>
<path d="M595.373 1095.69H634.967V1135.29H595.373V1095.69Z" fill="white" fill-opacity="0.03"/>
<path d="M595.373 1180.75H634.967V1220.34H595.373V1180.75Z" fill="white" fill-opacity="0.03"/>
<path d="M595.373 1265.8H634.967V1305.39H595.373V1265.8Z" fill="white" fill-opacity="0.03"/>
<path d="M637.899 32.5266H677.493V72.1204H637.899V32.5266Z" fill="white" fill-opacity="0.03"/>
<path d="M637.899 75.0533H677.493V114.647H637.899V75.0533Z" fill="white" fill-opacity="0.03"/>
<path d="M637.899 117.58H677.493V157.174H637.899V117.58Z" fill="white" fill-opacity="0.01"/>
<path d="M637.899 160.107H677.493V199.7H637.899V160.107Z" fill="white" fill-opacity="0.03"/>
<path d="M637.899 202.633H677.493V242.227H637.899V202.633Z" fill="white" fill-opacity="0.01"/>
<path d="M637.899 245.16H677.493V284.754H637.899V245.16Z" fill="white" fill-opacity="0.03"/>
<path d="M637.899 287.686H677.493V327.28H637.899V287.686Z" fill="white" fill-opacity="0.03"/>
<path d="M637.899 330.213H677.493V369.807H637.899V330.213Z" fill="white" fill-opacity="0.01"/>
<path d="M637.899 372.74H677.493V412.333H637.899V372.74Z" fill="white" fill-opacity="0.03"/>
<path d="M637.899 415.266H677.493V454.86H637.899V415.266Z" fill="white" fill-opacity="0.01"/>
<path d="M637.899 457.793H677.493V497.387H637.899V457.793Z" fill="white" fill-opacity="0.03"/>
<path d="M637.899 500.32H677.493V539.913H637.899V500.32Z" fill="white" fill-opacity="0.01"/>
<path d="M637.899 542.846H677.493V582.44H637.899V542.846Z" fill="white" fill-opacity="0.03"/>
<path d="M637.899 585.373H677.493V624.967H637.899V585.373Z" fill="white" fill-opacity="0.03"/>
<path d="M637.899 627.899H677.493V667.493H637.899V627.899Z" fill="white" fill-opacity="0.01"/>
<path d="M637.899 670.426H677.493V710.02H637.899V670.426Z" fill="white" fill-opacity="0.01"/>
<path d="M637.899 712.953H677.493V752.547H637.899V712.953Z" fill="white" fill-opacity="0.01"/>
<path d="M637.899 755.479H677.493V795.073H637.899V755.479Z" fill="white" fill-opacity="0.03"/>
<path d="M637.899 798.006H677.493V837.6H637.899V798.006Z" fill="white" fill-opacity="0.03"/>
<path d="M637.899 840.533H677.493V880.126H637.899V840.533Z" fill="white" fill-opacity="0.01"/>
<path d="M637.899 883.059H677.493V922.653H637.899V883.059Z" fill="white" fill-opacity="0.03"/>
<path d="M637.899 925.586H677.493V965.18H637.899V925.586Z" fill="white" fill-opacity="0.01"/>
<path d="M637.899 968.112H677.493V1007.71H637.899V968.112Z" fill="white" fill-opacity="0.01"/>
<path d="M637.899 1010.64H677.493V1050.23H637.899V1010.64Z" fill="white" fill-opacity="0.03"/>
<path d="M637.899 1053.17H677.493V1092.76H637.899V1053.17Z" fill="white" fill-opacity="0.03"/>
<path d="M637.899 1095.69H677.493V1135.29H637.899V1095.69Z" fill="white" fill-opacity="0.03"/>
<path d="M637.899 1138.22H677.493V1177.81H637.899V1138.22Z" fill="white" fill-opacity="0.03"/>
<path d="M637.899 1180.75H677.493V1220.34H637.899V1180.75Z" fill="white" fill-opacity="0.03"/>
<path d="M680.426 -10H720.02V29.5938H680.426V-10Z" fill="white" fill-opacity="0.03"/>
<path d="M680.426 32.5266H720.02V72.1204H680.426V32.5266Z" fill="white" fill-opacity="0.03"/>
<path d="M680.426 117.58H720.02V157.174H680.426V117.58Z" fill="white" fill-opacity="0.03"/>
<path d="M680.426 202.633H720.02V242.227H680.426V202.633Z" fill="white" fill-opacity="0.03"/>
<path d="M680.426 245.16H720.02V284.754H680.426V245.16Z" fill="white" fill-opacity="0.03"/>
<path d="M680.426 287.686H720.02V327.28H680.426V287.686Z" fill="white" fill-opacity="0.03"/>
<path d="M680.426 330.213H720.02V369.807H680.426V330.213Z" fill="white" fill-opacity="0.01"/>
<path d="M680.426 457.793H720.02V497.387H680.426V457.793Z" fill="white" fill-opacity="0.01"/>
<path d="M680.426 500.32H720.02V539.913H680.426V500.32Z" fill="white" fill-opacity="0.03"/>
<path d="M680.426 542.846H720.02V582.44H680.426V542.846Z" fill="white" fill-opacity="0.03"/>
<path d="M680.426 585.373H720.02V624.967H680.426V585.373Z" fill="white" fill-opacity="0.03"/>
<path d="M680.426 627.899H720.02V667.493H680.426V627.899Z" fill="white" fill-opacity="0.03"/>
<path d="M680.426 670.426H720.02V710.02H680.426V670.426Z" fill="white" fill-opacity="0.01"/>
<path d="M680.426 755.479H720.02V795.073H680.426V755.479Z" fill="white" fill-opacity="0.01"/>
<path d="M680.426 798.006H720.02V837.6H680.426V798.006Z" fill="white" fill-opacity="0.03"/>
<path d="M680.426 840.533H720.02V880.126H680.426V840.533Z" fill="white" fill-opacity="0.01"/>
<path d="M680.426 883.059H720.02V922.653H680.426V883.059Z" fill="white" fill-opacity="0.01"/>
<path d="M680.426 1010.64H720.02V1050.23H680.426V1010.64Z" fill="white" fill-opacity="0.03"/>
<path d="M680.426 1095.69H720.02V1135.29H680.426V1095.69Z" fill="white" fill-opacity="0.03"/>
<path d="M680.426 1138.22H720.02V1177.81H680.426V1138.22Z" fill="white" fill-opacity="0.03"/>
<path d="M680.426 1223.27H720.02V1262.87H680.426V1223.27Z" fill="white" fill-opacity="0.03"/>
<path d="M680.426 1265.8H720.02V1305.39H680.426V1265.8Z" fill="white" fill-opacity="0.01"/>
<path d="M722.953 -10H762.547V29.5938H722.953V-10Z" fill="white" fill-opacity="0.03"/>
<path d="M722.953 32.5266H762.547V72.1204H722.953V32.5266Z" fill="white" fill-opacity="0.01"/>
<path d="M722.953 75.0533H762.547V114.647H722.953V75.0533Z" fill="white" fill-opacity="0.03"/>
<path d="M722.953 117.58H762.547V157.174H722.953V117.58Z" fill="white" fill-opacity="0.03"/>
<path d="M722.953 160.107H762.547V199.7H722.953V160.107Z" fill="white" fill-opacity="0.01"/>
<path d="M722.953 245.16H762.547V284.754H722.953V245.16Z" fill="white" fill-opacity="0.03"/>
<path d="M722.953 287.686H762.547V327.28H722.953V287.686Z" fill="white" fill-opacity="0.01"/>
<path d="M722.953 330.213H762.547V369.807H722.953V330.213Z" fill="white" fill-opacity="0.01"/>
<path d="M722.953 415.266H762.547V454.86H722.953V415.266Z" fill="white" fill-opacity="0.01"/>
<path d="M722.953 457.793H762.547V497.387H722.953V457.793Z" fill="white" fill-opacity="0.03"/>
<path d="M722.953 500.32H762.547V539.913H722.953V500.32Z" fill="white" fill-opacity="0.03"/>
<path d="M722.953 542.846H762.547V582.44H722.953V542.846Z" fill="white" fill-opacity="0.03"/>
<path d="M722.953 585.373H762.547V624.967H722.953V585.373Z" fill="white" fill-opacity="0.03"/>
<path d="M722.953 670.426H762.547V710.02H722.953V670.426Z" fill="white" fill-opacity="0.03"/>
<path d="M722.953 755.479H762.547V795.073H722.953V755.479Z" fill="white" fill-opacity="0.03"/>
<path d="M722.953 798.006H762.547V837.6H722.953V798.006Z" fill="white" fill-opacity="0.03"/>
<path d="M722.953 840.533H762.547V880.126H722.953V840.533Z" fill="white" fill-opacity="0.01"/>
<path d="M722.953 883.059H762.547V922.653H722.953V883.059Z" fill="white" fill-opacity="0.01"/>
<path d="M722.953 925.586H762.547V965.18H722.953V925.586Z" fill="white" fill-opacity="0.01"/>
<path d="M722.953 1010.64H762.547V1050.23H722.953V1010.64Z" fill="white" fill-opacity="0.03"/>
<path d="M722.953 1053.17H762.547V1092.76H722.953V1053.17Z" fill="white" fill-opacity="0.03"/>
<path d="M722.953 1095.69H762.547V1135.29H722.953V1095.69Z" fill="white" fill-opacity="0.01"/>
<path d="M722.953 1138.22H762.547V1177.81H722.953V1138.22Z" fill="white" fill-opacity="0.03"/>
<path d="M722.953 1223.27H762.547V1262.87H722.953V1223.27Z" fill="white" fill-opacity="0.03"/>
<path d="M722.953 1265.8H762.547V1305.39H722.953V1265.8Z" fill="white" fill-opacity="0.01"/>
<path d="M765.479 -10H805.073V29.5938H765.479V-10Z" fill="white" fill-opacity="0.03"/>
<path d="M765.479 32.5266H805.073V72.1204H765.479V32.5266Z" fill="white" fill-opacity="0.03"/>
<path d="M765.479 75.0533H805.073V114.647H765.479V75.0533Z" fill="white" fill-opacity="0.03"/>
<path d="M765.479 117.58H805.073V157.174H765.479V117.58Z" fill="white" fill-opacity="0.03"/>
<path d="M765.479 160.107H805.073V199.7H765.479V160.107Z" fill="white" fill-opacity="0.03"/>
<path d="M765.479 202.633H805.073V242.227H765.479V202.633Z" fill="white" fill-opacity="0.03"/>
<path d="M765.479 245.16H805.073V284.754H765.479V245.16Z" fill="white" fill-opacity="0.03"/>
<path d="M765.479 287.686H805.073V327.28H765.479V287.686Z" fill="white" fill-opacity="0.03"/>
<path d="M765.479 330.213H805.073V369.807H765.479V330.213Z" fill="white" fill-opacity="0.01"/>
<path d="M765.479 372.74H805.073V412.333H765.479V372.74Z" fill="white" fill-opacity="0.03"/>
<path d="M765.479 415.266H805.073V454.86H765.479V415.266Z" fill="white" fill-opacity="0.03"/>
<path d="M765.479 585.373H805.073V624.967H765.479V585.373Z" fill="white" fill-opacity="0.01"/>
<path d="M765.479 627.899H805.073V667.493H765.479V627.899Z" fill="white" fill-opacity="0.01"/>
<path d="M765.479 670.426H805.073V710.02H765.479V670.426Z" fill="white" fill-opacity="0.01"/>
<path d="M765.479 712.953H805.073V752.547H765.479V712.953Z" fill="white" fill-opacity="0.03"/>
<path d="M765.479 798.006H805.073V837.6H765.479V798.006Z" fill="white" fill-opacity="0.03"/>
<path d="M765.479 883.059H805.073V922.653H765.479V883.059Z" fill="white" fill-opacity="0.03"/>
<path d="M765.479 925.586H805.073V965.18H765.479V925.586Z" fill="white" fill-opacity="0.01"/>
<path d="M765.479 968.112H805.073V1007.71H765.479V968.112Z" fill="white" fill-opacity="0.03"/>
<path d="M765.479 1010.64H805.073V1050.23H765.479V1010.64Z" fill="white" fill-opacity="0.01"/>
<path d="M765.479 1053.17H805.073V1092.76H765.479V1053.17Z" fill="white" fill-opacity="0.01"/>
<path d="M765.479 1095.69H805.073V1135.29H765.479V1095.69Z" fill="white" fill-opacity="0.03"/>
<path d="M765.479 1138.22H805.073V1177.81H765.479V1138.22Z" fill="white" fill-opacity="0.03"/>
<path d="M765.479 1180.75H805.073V1220.34H765.479V1180.75Z" fill="white" fill-opacity="0.03"/>
<path d="M765.479 1265.8H805.073V1305.39H765.479V1265.8Z" fill="white" fill-opacity="0.03"/>
<path d="M808.006 -10H847.6V29.5938H808.006V-10Z" fill="white" fill-opacity="0.03"/>
<path d="M808.006 32.5266H847.6V72.1204H808.006V32.5266Z" fill="white" fill-opacity="0.01"/>
<path d="M808.006 75.0533H847.6V114.647H808.006V75.0533Z" fill="white" fill-opacity="0.01"/>
<path d="M808.006 117.58H847.6V157.174H808.006V117.58Z" fill="white" fill-opacity="0.03"/>
<path d="M808.006 160.107H847.6V199.7H808.006V160.107Z" fill="white" fill-opacity="0.03"/>
<path d="M808.006 202.633H847.6V242.227H808.006V202.633Z" fill="white" fill-opacity="0.01"/>
<path d="M808.006 330.213H847.6V369.807H808.006V330.213Z" fill="white" fill-opacity="0.03"/>
<path d="M808.006 372.74H847.6V412.333H808.006V372.74Z" fill="white" fill-opacity="0.01"/>
<path d="M808.006 415.266H847.6V454.86H808.006V415.266Z" fill="white" fill-opacity="0.01"/>
<path d="M808.006 457.793H847.6V497.387H808.006V457.793Z" fill="white" fill-opacity="0.03"/>
<path d="M808.006 500.32H847.6V539.913H808.006V500.32Z" fill="white" fill-opacity="0.03"/>
<path d="M808.006 585.373H847.6V624.967H808.006V585.373Z" fill="white" fill-opacity="0.01"/>
<path d="M808.006 627.899H847.6V667.493H808.006V627.899Z" fill="white" fill-opacity="0.01"/>
<path d="M808.006 670.426H847.6V710.02H808.006V670.426Z" fill="white" fill-opacity="0.03"/>
<path d="M808.006 712.953H847.6V752.547H808.006V712.953Z" fill="white" fill-opacity="0.01"/>
<path d="M808.006 840.533H847.6V880.126H808.006V840.533Z" fill="white" fill-opacity="0.03"/>
<path d="M808.006 883.059H847.6V922.653H808.006V883.059Z" fill="white" fill-opacity="0.01"/>
<path d="M808.006 925.586H847.6V965.18H808.006V925.586Z" fill="white" fill-opacity="0.03"/>
<path d="M808.006 968.112H847.6V1007.71H808.006V968.112Z" fill="white" fill-opacity="0.01"/>
<path d="M808.006 1053.17H847.6V1092.76H808.006V1053.17Z" fill="white" fill-opacity="0.03"/>
<path d="M808.006 1095.69H847.6V1135.29H808.006V1095.69Z" fill="white" fill-opacity="0.01"/>
<path d="M808.006 1138.22H847.6V1177.81H808.006V1138.22Z" fill="white" fill-opacity="0.03"/>
<path d="M808.006 1180.75H847.6V1220.34H808.006V1180.75Z" fill="white" fill-opacity="0.03"/>
<path d="M808.006 1223.27H847.6V1262.87H808.006V1223.27Z" fill="white" fill-opacity="0.03"/>
<path d="M808.006 1265.8H847.6V1305.39H808.006V1265.8Z" fill="white" fill-opacity="0.03"/>
<path d="M850.533 32.5266H890.126V72.1204H850.533V32.5266Z" fill="white" fill-opacity="0.01"/>
<path d="M850.533 117.58H890.126V157.174H850.533V117.58Z" fill="white" fill-opacity="0.03"/>
<path d="M850.533 160.107H890.126V199.7H850.533V160.107Z" fill="white" fill-opacity="0.03"/>
<path d="M850.533 202.633H890.126V242.227H850.533V202.633Z" fill="white" fill-opacity="0.03"/>
<path d="M850.533 245.16H890.126V284.754H850.533V245.16Z" fill="white" fill-opacity="0.01"/>
<path d="M850.533 330.213H890.126V369.807H850.533V330.213Z" fill="white" fill-opacity="0.03"/>
<path d="M850.533 415.266H890.126V454.86H850.533V415.266Z" fill="white" fill-opacity="0.03"/>
<path d="M850.533 500.32H890.126V539.913H850.533V500.32Z" fill="white" fill-opacity="0.03"/>
<path d="M850.533 542.846H890.126V582.44H850.533V542.846Z" fill="white" fill-opacity="0.03"/>
<path d="M850.533 585.373H890.126V624.967H850.533V585.373Z" fill="white" fill-opacity="0.01"/>
<path d="M850.533 670.426H890.126V710.02H850.533V670.426Z" fill="white" fill-opacity="0.01"/>
<path d="M850.533 712.953H890.126V752.547H850.533V712.953Z" fill="white" fill-opacity="0.03"/>
<path d="M850.533 755.479H890.126V795.073H850.533V755.479Z" fill="white" fill-opacity="0.01"/>
<path d="M850.533 798.006H890.126V837.6H850.533V798.006Z" fill="white" fill-opacity="0.03"/>
<path d="M850.533 840.533H890.126V880.126H850.533V840.533Z" fill="white" fill-opacity="0.03"/>
<path d="M850.533 883.059H890.126V922.653H850.533V883.059Z" fill="white" fill-opacity="0.03"/>
<path d="M850.533 968.112H890.126V1007.71H850.533V968.112Z" fill="white" fill-opacity="0.03"/>
<path d="M850.533 1010.64H890.126V1050.23H850.533V1010.64Z" fill="white" fill-opacity="0.03"/>
<path d="M850.533 1053.17H890.126V1092.76H850.533V1053.17Z" fill="white" fill-opacity="0.03"/>
<path d="M850.533 1095.69H890.126V1135.29H850.533V1095.69Z" fill="white" fill-opacity="0.03"/>
<path d="M850.533 1138.22H890.126V1177.81H850.533V1138.22Z" fill="white" fill-opacity="0.01"/>
<path d="M850.533 1180.75H890.126V1220.34H850.533V1180.75Z" fill="white" fill-opacity="0.01"/>
<path d="M850.533 1223.27H890.126V1262.87H850.533V1223.27Z" fill="white" fill-opacity="0.01"/>
<path d="M850.533 1265.8H890.126V1305.39H850.533V1265.8Z" fill="white" fill-opacity="0.03"/>
<path d="M893.059 32.5266H932.653V72.1204H893.059V32.5266Z" fill="white" fill-opacity="0.03"/>
<path d="M893.059 75.0533H932.653V114.647H893.059V75.0533Z" fill="white" fill-opacity="0.01"/>
<path d="M893.059 117.58H932.653V157.174H893.059V117.58Z" fill="white" fill-opacity="0.01"/>
<path d="M893.059 160.107H932.653V199.7H893.059V160.107Z" fill="white" fill-opacity="0.03"/>
<path d="M893.059 245.16H932.653V284.754H893.059V245.16Z" fill="white" fill-opacity="0.03"/>
<path d="M893.059 372.74H932.653V412.333H893.059V372.74Z" fill="white" fill-opacity="0.03"/>
<path d="M893.059 457.793H932.653V497.387H893.059V457.793Z" fill="white" fill-opacity="0.03"/>
<path d="M893.059 500.32H932.653V539.913H893.059V500.32Z" fill="white" fill-opacity="0.03"/>
<path d="M893.059 542.846H932.653V582.44H893.059V542.846Z" fill="white" fill-opacity="0.03"/>
<path d="M893.059 627.899H932.653V667.493H893.059V627.899Z" fill="white" fill-opacity="0.03"/>
<path d="M893.059 670.426H932.653V710.02H893.059V670.426Z" fill="white" fill-opacity="0.03"/>
<path d="M893.059 712.953H932.653V752.547H893.059V712.953Z" fill="white" fill-opacity="0.03"/>
<path d="M893.059 798.006H932.653V837.6H893.059V798.006Z" fill="white" fill-opacity="0.03"/>
<path d="M893.059 840.533H932.653V880.126H893.059V840.533Z" fill="white" fill-opacity="0.01"/>
<path d="M893.059 925.586H932.653V965.18H893.059V925.586Z" fill="white" fill-opacity="0.01"/>
<path d="M893.059 968.112H932.653V1007.71H893.059V968.112Z" fill="white" fill-opacity="0.03"/>
<path d="M893.059 1010.64H932.653V1050.23H893.059V1010.64Z" fill="white" fill-opacity="0.03"/>
<path d="M893.059 1053.17H932.653V1092.76H893.059V1053.17Z" fill="white" fill-opacity="0.03"/>
<path d="M893.059 1095.69H932.653V1135.29H893.059V1095.69Z" fill="white" fill-opacity="0.03"/>
<path d="M893.059 1138.22H932.653V1177.81H893.059V1138.22Z" fill="white" fill-opacity="0.01"/>
<path d="M893.059 1223.27H932.653V1262.87H893.059V1223.27Z" fill="white" fill-opacity="0.03"/>
<path d="M935.586 -10H975.18V29.5938H935.586V-10Z" fill="white" fill-opacity="0.03"/>
<path d="M935.586 32.5266H975.18V72.1204H935.586V32.5266Z" fill="white" fill-opacity="0.03"/>
<path d="M935.586 75.0533H975.18V114.647H935.586V75.0533Z" fill="white" fill-opacity="0.03"/>
<path d="M935.586 117.58H975.18V157.174H935.586V117.58Z" fill="white" fill-opacity="0.03"/>
<path d="M935.586 160.107H975.18V199.7H935.586V160.107Z" fill="white" fill-opacity="0.03"/>
<path d="M935.586 202.633H975.18V242.227H935.586V202.633Z" fill="white" fill-opacity="0.03"/>
<path d="M935.586 245.16H975.18V284.754H935.586V245.16Z" fill="white" fill-opacity="0.03"/>
<path d="M935.586 287.686H975.18V327.28H935.586V287.686Z" fill="white" fill-opacity="0.01"/>
<path d="M935.586 372.74H975.18V412.333H935.586V372.74Z" fill="white" fill-opacity="0.03"/>
<path d="M935.586 457.793H975.18V497.387H935.586V457.793Z" fill="white" fill-opacity="0.03"/>
<path d="M935.586 500.32H975.18V539.913H935.586V500.32Z" fill="white" fill-opacity="0.01"/>
<path d="M935.586 542.846H975.18V582.44H935.586V542.846Z" fill="white" fill-opacity="0.03"/>
<path d="M935.586 670.426H975.18V710.02H935.586V670.426Z" fill="white" fill-opacity="0.03"/>
<path d="M935.586 712.953H975.18V752.547H935.586V712.953Z" fill="white" fill-opacity="0.01"/>
<path d="M935.586 755.479H975.18V795.073H935.586V755.479Z" fill="white" fill-opacity="0.03"/>
<path d="M935.586 798.006H975.18V837.6H935.586V798.006Z" fill="white" fill-opacity="0.03"/>
<path d="M935.586 883.059H975.18V922.653H935.586V883.059Z" fill="white" fill-opacity="0.03"/>
<path d="M935.586 925.586H975.18V965.18H935.586V925.586Z" fill="white" fill-opacity="0.03"/>
<path d="M935.586 968.112H975.18V1007.71H935.586V968.112Z" fill="white" fill-opacity="0.03"/>
<path d="M935.586 1010.64H975.18V1050.23H935.586V1010.64Z" fill="white" fill-opacity="0.01"/>
<path d="M935.586 1053.17H975.18V1092.76H935.586V1053.17Z" fill="white" fill-opacity="0.01"/>
<path d="M935.586 1095.69H975.18V1135.29H935.586V1095.69Z" fill="white" fill-opacity="0.03"/>
<path d="M935.586 1138.22H975.18V1177.81H935.586V1138.22Z" fill="white" fill-opacity="0.03"/>
<path d="M935.586 1180.75H975.18V1220.34H935.586V1180.75Z" fill="white" fill-opacity="0.03"/>
<path d="M935.586 1223.27H975.18V1262.87H935.586V1223.27Z" fill="white" fill-opacity="0.01"/>
<path d="M935.586 1265.8H975.18V1305.39H935.586V1265.8Z" fill="white" fill-opacity="0.03"/>
<path d="M978.112 -10H1017.71V29.5938H978.112V-10Z" fill="white" fill-opacity="0.03"/>
<path d="M978.112 32.5266H1017.71V72.1204H978.112V32.5266Z" fill="white" fill-opacity="0.01"/>
<path d="M978.112 75.0533H1017.71V114.647H978.112V75.0533Z" fill="white" fill-opacity="0.03"/>
<path d="M978.112 117.58H1017.71V157.174H978.112V117.58Z" fill="white" fill-opacity="0.03"/>
<path d="M978.112 160.107H1017.71V199.7H978.112V160.107Z" fill="white" fill-opacity="0.03"/>
<path d="M978.112 202.633H1017.71V242.227H978.112V202.633Z" fill="white" fill-opacity="0.01"/>
<path d="M978.112 245.16H1017.71V284.754H978.112V245.16Z" fill="white" fill-opacity="0.03"/>
<path d="M978.112 330.213H1017.71V369.807H978.112V330.213Z" fill="white" fill-opacity="0.03"/>
<path d="M978.112 372.74H1017.71V412.333H978.112V372.74Z" fill="white" fill-opacity="0.01"/>
<path d="M978.112 415.266H1017.71V454.86H978.112V415.266Z" fill="white" fill-opacity="0.01"/>
<path d="M978.112 457.793H1017.71V497.387H978.112V457.793Z" fill="white" fill-opacity="0.01"/>
<path d="M978.112 500.32H1017.71V539.913H978.112V500.32Z" fill="white" fill-opacity="0.03"/>
<path d="M978.112 585.373H1017.71V624.967H978.112V585.373Z" fill="white" fill-opacity="0.01"/>
<path d="M978.112 670.426H1017.71V710.02H978.112V670.426Z" fill="white" fill-opacity="0.03"/>
<path d="M978.112 798.006H1017.71V837.6H978.112V798.006Z" fill="white" fill-opacity="0.03"/>
<path d="M978.112 840.533H1017.71V880.126H978.112V840.533Z" fill="white" fill-opacity="0.03"/>
<path d="M978.112 883.059H1017.71V922.653H978.112V883.059Z" fill="white" fill-opacity="0.01"/>
<path d="M978.112 925.586H1017.71V965.18H978.112V925.586Z" fill="white" fill-opacity="0.03"/>
<path d="M978.112 968.112H1017.71V1007.71H978.112V968.112Z" fill="white" fill-opacity="0.03"/>
<path d="M978.112 1010.64H1017.71V1050.23H978.112V1010.64Z" fill="white" fill-opacity="0.01"/>
<path d="M978.112 1053.17H1017.71V1092.76H978.112V1053.17Z" fill="white" fill-opacity="0.01"/>
<path d="M978.112 1095.69H1017.71V1135.29H978.112V1095.69Z" fill="white" fill-opacity="0.01"/>
<path d="M978.112 1138.22H1017.71V1177.81H978.112V1138.22Z" fill="white" fill-opacity="0.03"/>
<path d="M978.112 1180.75H1017.71V1220.34H978.112V1180.75Z" fill="white" fill-opacity="0.01"/>
<path d="M978.112 1223.27H1017.71V1262.87H978.112V1223.27Z" fill="white" fill-opacity="0.03"/>
<path d="M978.112 1265.8H1017.71V1305.39H978.112V1265.8Z" fill="white" fill-opacity="0.03"/>
<path d="M1020.64 32.5266H1060.23V72.1204H1020.64V32.5266Z" fill="white" fill-opacity="0.03"/>
<path d="M1020.64 160.107H1060.23V199.7H1020.64V160.107Z" fill="white" fill-opacity="0.01"/>
<path d="M1020.64 202.633H1060.23V242.227H1020.64V202.633Z" fill="white" fill-opacity="0.01"/>
<path d="M1020.64 245.16H1060.23V284.754H1020.64V245.16Z" fill="white" fill-opacity="0.01"/>
<path d="M1020.64 287.686H1060.23V327.28H1020.64V287.686Z" fill="white" fill-opacity="0.01"/>
<path d="M1020.64 330.213H1060.23V369.807H1020.64V330.213Z" fill="white" fill-opacity="0.03"/>
<path d="M1020.64 415.266H1060.23V454.86H1020.64V415.266Z" fill="white" fill-opacity="0.01"/>
<path d="M1020.64 457.793H1060.23V497.387H1020.64V457.793Z" fill="white" fill-opacity="0.01"/>
<path d="M1020.64 542.846H1060.23V582.44H1020.64V542.846Z" fill="white" fill-opacity="0.01"/>
<path d="M1020.64 627.899H1060.23V667.493H1020.64V627.899Z" fill="white" fill-opacity="0.03"/>
<path d="M1020.64 670.426H1060.23V710.02H1020.64V670.426Z" fill="white" fill-opacity="0.03"/>
<path d="M1020.64 712.953H1060.23V752.547H1020.64V712.953Z" fill="white" fill-opacity="0.01"/>
<path d="M1020.64 755.479H1060.23V795.073H1020.64V755.479Z" fill="white" fill-opacity="0.03"/>
<path d="M1020.64 798.006H1060.23V837.6H1020.64V798.006Z" fill="white" fill-opacity="0.01"/>
<path d="M1020.64 883.059H1060.23V922.653H1020.64V883.059Z" fill="white" fill-opacity="0.03"/>
<path d="M1020.64 925.586H1060.23V965.18H1020.64V925.586Z" fill="white" fill-opacity="0.03"/>
<path d="M1020.64 968.112H1060.23V1007.71H1020.64V968.112Z" fill="white" fill-opacity="0.03"/>
<path d="M1020.64 1010.64H1060.23V1050.23H1020.64V1010.64Z" fill="white" fill-opacity="0.03"/>
<path d="M1020.64 1053.17H1060.23V1092.76H1020.64V1053.17Z" fill="white" fill-opacity="0.01"/>
<path d="M1020.64 1095.69H1060.23V1135.29H1020.64V1095.69Z" fill="white" fill-opacity="0.03"/>
<path d="M1020.64 1180.75H1060.23V1220.34H1020.64V1180.75Z" fill="white" fill-opacity="0.01"/>
<path d="M1020.64 1223.27H1060.23V1262.87H1020.64V1223.27Z" fill="white" fill-opacity="0.03"/>
<path d="M1020.64 1265.8H1060.23V1305.39H1020.64V1265.8Z" fill="white" fill-opacity="0.03"/>
<path d="M1063.17 32.5266H1102.76V72.1204H1063.17V32.5266Z" fill="white" fill-opacity="0.03"/>
<path d="M1063.17 75.0533H1102.76V114.647H1063.17V75.0533Z" fill="white" fill-opacity="0.01"/>
<path d="M1063.17 160.107H1102.76V199.7H1063.17V160.107Z" fill="white" fill-opacity="0.01"/>
<path d="M1063.17 202.633H1102.76V242.227H1063.17V202.633Z" fill="white" fill-opacity="0.03"/>
<path d="M1063.17 245.16H1102.76V284.754H1063.17V245.16Z" fill="white" fill-opacity="0.01"/>
<path d="M1063.17 287.686H1102.76V327.28H1063.17V287.686Z" fill="white" fill-opacity="0.03"/>
<path d="M1063.17 372.74H1102.76V412.333H1063.17V372.74Z" fill="white" fill-opacity="0.01"/>
<path d="M1063.17 457.793H1102.76V497.387H1063.17V457.793Z" fill="white" fill-opacity="0.01"/>
<path d="M1063.17 500.32H1102.76V539.913H1063.17V500.32Z" fill="white" fill-opacity="0.01"/>
<path d="M1063.17 542.846H1102.76V582.44H1063.17V542.846Z" fill="white" fill-opacity="0.03"/>
<path d="M1063.17 627.899H1102.76V667.493H1063.17V627.899Z" fill="white" fill-opacity="0.03"/>
<path d="M1063.17 670.426H1102.76V710.02H1063.17V670.426Z" fill="white" fill-opacity="0.03"/>
<path d="M1063.17 712.953H1102.76V752.547H1063.17V712.953Z" fill="white" fill-opacity="0.01"/>
<path d="M1063.17 755.479H1102.76V795.073H1063.17V755.479Z" fill="white" fill-opacity="0.03"/>
<path d="M1063.17 840.533H1102.76V880.126H1063.17V840.533Z" fill="white" fill-opacity="0.01"/>
<path d="M1063.17 883.059H1102.76V922.653H1063.17V883.059Z" fill="white" fill-opacity="0.01"/>
<path d="M1063.17 968.112H1102.76V1007.71H1063.17V968.112Z" fill="white" fill-opacity="0.01"/>
<path d="M1063.17 1010.64H1102.76V1050.23H1063.17V1010.64Z" fill="white" fill-opacity="0.01"/>
<path d="M1063.17 1095.69H1102.76V1135.29H1063.17V1095.69Z" fill="white" fill-opacity="0.03"/>
<path d="M1063.17 1138.22H1102.76V1177.81H1063.17V1138.22Z" fill="white" fill-opacity="0.03"/>
<path d="M1063.17 1180.75H1102.76V1220.34H1063.17V1180.75Z" fill="white" fill-opacity="0.03"/>
<path d="M1063.17 1265.8H1102.76V1305.39H1063.17V1265.8Z" fill="white" fill-opacity="0.03"/>
<path d="M1105.69 -10H1145.29V29.5938H1105.69V-10Z" fill="white" fill-opacity="0.03"/>
<path d="M1105.69 32.5266H1145.29V72.1204H1105.69V32.5266Z" fill="white" fill-opacity="0.03"/>
<path d="M1105.69 117.58H1145.29V157.174H1105.69V117.58Z" fill="white" fill-opacity="0.03"/>
<path d="M1105.69 160.107H1145.29V199.7H1105.69V160.107Z" fill="white" fill-opacity="0.01"/>
<path d="M1105.69 202.633H1145.29V242.227H1105.69V202.633Z" fill="white" fill-opacity="0.01"/>
<path d="M1105.69 245.16H1145.29V284.754H1105.69V245.16Z" fill="white" fill-opacity="0.03"/>
<path d="M1105.69 287.686H1145.29V327.28H1105.69V287.686Z" fill="white" fill-opacity="0.03"/>
<path d="M1105.69 330.213H1145.29V369.807H1105.69V330.213Z" fill="white" fill-opacity="0.03"/>
<path d="M1105.69 372.74H1145.29V412.333H1105.69V372.74Z" fill="white" fill-opacity="0.03"/>
<path d="M1105.69 415.266H1145.29V454.86H1105.69V415.266Z" fill="white" fill-opacity="0.03"/>
<path d="M1105.69 457.793H1145.29V497.387H1105.69V457.793Z" fill="white" fill-opacity="0.01"/>
<path d="M1105.69 500.32H1145.29V539.913H1105.69V500.32Z" fill="white" fill-opacity="0.03"/>
<path d="M1105.69 542.846H1145.29V582.44H1105.69V542.846Z" fill="white" fill-opacity="0.03"/>
<path d="M1105.69 585.373H1145.29V624.967H1105.69V585.373Z" fill="white" fill-opacity="0.03"/>
<path d="M1105.69 627.899H1145.29V667.493H1105.69V627.899Z" fill="white" fill-opacity="0.03"/>
<path d="M1105.69 670.426H1145.29V710.02H1105.69V670.426Z" fill="white" fill-opacity="0.03"/>
<path d="M1105.69 712.953H1145.29V752.547H1105.69V712.953Z" fill="white" fill-opacity="0.01"/>
<path d="M1105.69 798.006H1145.29V837.6H1105.69V798.006Z" fill="white" fill-opacity="0.03"/>
<path d="M1105.69 840.533H1145.29V880.126H1105.69V840.533Z" fill="white" fill-opacity="0.03"/>
<path d="M1105.69 925.586H1145.29V965.18H1105.69V925.586Z" fill="white" fill-opacity="0.01"/>
<path d="M1105.69 968.112H1145.29V1007.71H1105.69V968.112Z" fill="white" fill-opacity="0.01"/>
<path d="M1105.69 1010.64H1145.29V1050.23H1105.69V1010.64Z" fill="white" fill-opacity="0.03"/>
<path d="M1105.69 1095.69H1145.29V1135.29H1105.69V1095.69Z" fill="white" fill-opacity="0.01"/>
<path d="M1105.69 1138.22H1145.29V1177.81H1105.69V1138.22Z" fill="white" fill-opacity="0.03"/>
<path d="M1105.69 1223.27H1145.29V1262.87H1105.69V1223.27Z" fill="white" fill-opacity="0.03"/>
<path d="M1105.69 1265.8H1145.29V1305.39H1105.69V1265.8Z" fill="white" fill-opacity="0.03"/>
<path d="M1148.22 -10H1187.81V29.5938H1148.22V-10Z" fill="white" fill-opacity="0.03"/>
<path d="M1148.22 32.5266H1187.81V72.1204H1148.22V32.5266Z" fill="white" fill-opacity="0.03"/>
<path d="M1148.22 75.0533H1187.81V114.647H1148.22V75.0533Z" fill="white" fill-opacity="0.03"/>
<path d="M1148.22 117.58H1187.81V157.174H1148.22V117.58Z" fill="white" fill-opacity="0.03"/>
<path d="M1148.22 160.107H1187.81V199.7H1148.22V160.107Z" fill="white" fill-opacity="0.03"/>
<path d="M1148.22 202.633H1187.81V242.227H1148.22V202.633Z" fill="white" fill-opacity="0.03"/>
<path d="M1148.22 245.16H1187.81V284.754H1148.22V245.16Z" fill="white" fill-opacity="0.01"/>
<path d="M1148.22 287.686H1187.81V327.28H1148.22V287.686Z" fill="white" fill-opacity="0.03"/>
<path d="M1148.22 330.213H1187.81V369.807H1148.22V330.213Z" fill="white" fill-opacity="0.03"/>
<path d="M1148.22 415.266H1187.81V454.86H1148.22V415.266Z" fill="white" fill-opacity="0.03"/>
<path d="M1148.22 457.793H1187.81V497.387H1148.22V457.793Z" fill="white" fill-opacity="0.01"/>
<path d="M1148.22 585.373H1187.81V624.967H1148.22V585.373Z" fill="white" fill-opacity="0.01"/>
<path d="M1148.22 627.899H1187.81V667.493H1148.22V627.899Z" fill="white" fill-opacity="0.03"/>
<path d="M1148.22 670.426H1187.81V710.02H1148.22V670.426Z" fill="white" fill-opacity="0.01"/>
<path d="M1148.22 712.953H1187.81V752.547H1148.22V712.953Z" fill="white" fill-opacity="0.03"/>
<path d="M1148.22 755.479H1187.81V795.073H1148.22V755.479Z" fill="white" fill-opacity="0.03"/>
<path d="M1148.22 798.006H1187.81V837.6H1148.22V798.006Z" fill="white" fill-opacity="0.03"/>
<path d="M1148.22 840.533H1187.81V880.126H1148.22V840.533Z" fill="white" fill-opacity="0.01"/>
<path d="M1148.22 925.586H1187.81V965.18H1148.22V925.586Z" fill="white" fill-opacity="0.03"/>
<path d="M1148.22 968.112H1187.81V1007.71H1148.22V968.112Z" fill="white" fill-opacity="0.03"/>
<path d="M1148.22 1010.64H1187.81V1050.23H1148.22V1010.64Z" fill="white" fill-opacity="0.03"/>
<path d="M1148.22 1053.17H1187.81V1092.76H1148.22V1053.17Z" fill="white" fill-opacity="0.03"/>
<path d="M1148.22 1095.69H1187.81V1135.29H1148.22V1095.69Z" fill="white" fill-opacity="0.03"/>
<path d="M1148.22 1138.22H1187.81V1177.81H1148.22V1138.22Z" fill="white" fill-opacity="0.03"/>
<path d="M1148.22 1180.75H1187.81V1220.34H1148.22V1180.75Z" fill="white" fill-opacity="0.03"/>
<path d="M1148.22 1265.8H1187.81V1305.39H1148.22V1265.8Z" fill="white" fill-opacity="0.03"/>
<path d="M1190.75 -10H1230.34V29.5938H1190.75V-10Z" fill="white" fill-opacity="0.03"/>
<path d="M1190.75 32.5266H1230.34V72.1204H1190.75V32.5266Z" fill="white" fill-opacity="0.03"/>
<path d="M1190.75 75.0533H1230.34V114.647H1190.75V75.0533Z" fill="white" fill-opacity="0.01"/>
<path d="M1190.75 117.58H1230.34V157.174H1190.75V117.58Z" fill="white" fill-opacity="0.01"/>
<path d="M1190.75 160.107H1230.34V199.7H1190.75V160.107Z" fill="white" fill-opacity="0.03"/>
<path d="M1190.75 245.16H1230.34V284.754H1190.75V245.16Z" fill="white" fill-opacity="0.03"/>
<path d="M1190.75 287.686H1230.34V327.28H1190.75V287.686Z" fill="white" fill-opacity="0.03"/>
<path d="M1190.75 330.213H1230.34V369.807H1190.75V330.213Z" fill="white" fill-opacity="0.01"/>
<path d="M1190.75 372.74H1230.34V412.333H1190.75V372.74Z" fill="white" fill-opacity="0.01"/>
<path d="M1190.75 457.793H1230.34V497.387H1190.75V457.793Z" fill="white" fill-opacity="0.03"/>
<path d="M1190.75 500.32H1230.34V539.913H1190.75V500.32Z" fill="white" fill-opacity="0.03"/>
<path d="M1190.75 542.846H1230.34V582.44H1190.75V542.846Z" fill="white" fill-opacity="0.03"/>
<path d="M1190.75 585.373H1230.34V624.967H1190.75V585.373Z" fill="white" fill-opacity="0.03"/>
<path d="M1190.75 627.899H1230.34V667.493H1190.75V627.899Z" fill="white" fill-opacity="0.01"/>
<path d="M1190.75 670.426H1230.34V710.02H1190.75V670.426Z" fill="white" fill-opacity="0.03"/>
<path d="M1190.75 712.953H1230.34V752.547H1190.75V712.953Z" fill="white" fill-opacity="0.01"/>
<path d="M1190.75 755.479H1230.34V795.073H1190.75V755.479Z" fill="white" fill-opacity="0.01"/>
<path d="M1190.75 798.006H1230.34V837.6H1190.75V798.006Z" fill="white" fill-opacity="0.01"/>
<path d="M1190.75 883.059H1230.34V922.653H1190.75V883.059Z" fill="white" fill-opacity="0.03"/>
<path d="M1190.75 925.586H1230.34V965.18H1190.75V925.586Z" fill="white" fill-opacity="0.01"/>
<path d="M1190.75 1010.64H1230.34V1050.23H1190.75V1010.64Z" fill="white" fill-opacity="0.03"/>
<path d="M1190.75 1138.22H1230.34V1177.81H1190.75V1138.22Z" fill="white" fill-opacity="0.01"/>
<path d="M1190.75 1180.75H1230.34V1220.34H1190.75V1180.75Z" fill="white" fill-opacity="0.01"/>
<path d="M1190.75 1223.27H1230.34V1262.87H1190.75V1223.27Z" fill="white" fill-opacity="0.03"/>
<path d="M1190.75 1265.8H1230.34V1305.39H1190.75V1265.8Z" fill="white" fill-opacity="0.01"/>
<path d="M1233.27 -10H1272.87V29.5938H1233.27V-10Z" fill="white" fill-opacity="0.03"/>
<path d="M1233.27 75.0533H1272.87V114.647H1233.27V75.0533Z" fill="white" fill-opacity="0.01"/>
<path d="M1233.27 117.58H1272.87V157.174H1233.27V117.58Z" fill="white" fill-opacity="0.03"/>
<path d="M1233.27 160.107H1272.87V199.7H1233.27V160.107Z" fill="white" fill-opacity="0.03"/>
<path d="M1233.27 245.16H1272.87V284.754H1233.27V245.16Z" fill="white" fill-opacity="0.01"/>
<path d="M1233.27 287.686H1272.87V327.28H1233.27V287.686Z" fill="white" fill-opacity="0.03"/>
<path d="M1233.27 330.213H1272.87V369.807H1233.27V330.213Z" fill="white" fill-opacity="0.03"/>
<path d="M1233.27 415.266H1272.87V454.86H1233.27V415.266Z" fill="white" fill-opacity="0.01"/>
<path d="M1233.27 457.793H1272.87V497.387H1233.27V457.793Z" fill="white" fill-opacity="0.01"/>
<path d="M1233.27 500.32H1272.87V539.913H1233.27V500.32Z" fill="white" fill-opacity="0.01"/>
<path d="M1233.27 542.846H1272.87V582.44H1233.27V542.846Z" fill="white" fill-opacity="0.03"/>
<path d="M1233.27 585.373H1272.87V624.967H1233.27V585.373Z" fill="white" fill-opacity="0.01"/>
<path d="M1233.27 627.899H1272.87V667.493H1233.27V627.899Z" fill="white" fill-opacity="0.03"/>
<path d="M1233.27 670.426H1272.87V710.02H1233.27V670.426Z" fill="white" fill-opacity="0.01"/>
<path d="M1233.27 712.953H1272.87V752.547H1233.27V712.953Z" fill="white" fill-opacity="0.01"/>
<path d="M1233.27 755.479H1272.87V795.073H1233.27V755.479Z" fill="white" fill-opacity="0.03"/>
<path d="M1233.27 798.006H1272.87V837.6H1233.27V798.006Z" fill="white" fill-opacity="0.03"/>
<path d="M1233.27 840.533H1272.87V880.126H1233.27V840.533Z" fill="white" fill-opacity="0.01"/>
<path d="M1233.27 883.059H1272.87V922.653H1233.27V883.059Z" fill="white" fill-opacity="0.01"/>
<path d="M1233.27 925.586H1272.87V965.18H1233.27V925.586Z" fill="white" fill-opacity="0.03"/>
<path d="M1233.27 968.112H1272.87V1007.71H1233.27V968.112Z" fill="white" fill-opacity="0.03"/>
<path d="M1233.27 1053.17H1272.87V1092.76H1233.27V1053.17Z" fill="white" fill-opacity="0.03"/>
<path d="M1233.27 1095.69H1272.87V1135.29H1233.27V1095.69Z" fill="white" fill-opacity="0.01"/>
<path d="M1233.27 1138.22H1272.87V1177.81H1233.27V1138.22Z" fill="white" fill-opacity="0.03"/>
<path d="M1233.27 1180.75H1272.87V1220.34H1233.27V1180.75Z" fill="white" fill-opacity="0.03"/>
<path d="M1233.27 1223.27H1272.87V1262.87H1233.27V1223.27Z" fill="white" fill-opacity="0.01"/>
<path d="M1233.27 1265.8H1272.87V1305.39H1233.27V1265.8Z" fill="white" fill-opacity="0.03"/>
<path d="M1275.8 -10H1315.39V29.5938H1275.8V-10Z" fill="white" fill-opacity="0.03"/>
<path d="M1275.8 32.5266H1315.39V72.1204H1275.8V32.5266Z" fill="white" fill-opacity="0.01"/>
<path d="M1275.8 75.0533H1315.39V114.647H1275.8V75.0533Z" fill="white" fill-opacity="0.01"/>
<path d="M1275.8 117.58H1315.39V157.174H1275.8V117.58Z" fill="white" fill-opacity="0.01"/>
<path d="M1275.8 160.107H1315.39V199.7H1275.8V160.107Z" fill="white" fill-opacity="0.03"/>
<path d="M1275.8 245.16H1315.39V284.754H1275.8V245.16Z" fill="white" fill-opacity="0.03"/>
<path d="M1275.8 287.686H1315.39V327.28H1275.8V287.686Z" fill="white" fill-opacity="0.03"/>
<path d="M1275.8 372.74H1315.39V412.333H1275.8V372.74Z" fill="white" fill-opacity="0.01"/>
<path d="M1275.8 415.266H1315.39V454.86H1275.8V415.266Z" fill="white" fill-opacity="0.03"/>
<path d="M1275.8 457.793H1315.39V497.387H1275.8V457.793Z" fill="white" fill-opacity="0.03"/>
<path d="M1275.8 500.32H1315.39V539.913H1275.8V500.32Z" fill="white" fill-opacity="0.03"/>
<path d="M1275.8 542.846H1315.39V582.44H1275.8V542.846Z" fill="white" fill-opacity="0.01"/>
<path d="M1275.8 585.373H1315.39V624.967H1275.8V585.373Z" fill="white" fill-opacity="0.03"/>
<path d="M1275.8 627.899H1315.39V667.493H1275.8V627.899Z" fill="white" fill-opacity="0.03"/>
<path d="M1275.8 670.426H1315.39V710.02H1275.8V670.426Z" fill="white" fill-opacity="0.03"/>
<path d="M1275.8 712.953H1315.39V752.547H1275.8V712.953Z" fill="white" fill-opacity="0.03"/>
<path d="M1275.8 755.479H1315.39V795.073H1275.8V755.479Z" fill="white" fill-opacity="0.03"/>
<path d="M1275.8 798.006H1315.39V837.6H1275.8V798.006Z" fill="white" fill-opacity="0.01"/>
<path d="M1275.8 840.533H1315.39V880.126H1275.8V840.533Z" fill="white" fill-opacity="0.01"/>
<path d="M1275.8 968.112H1315.39V1007.71H1275.8V968.112Z" fill="white" fill-opacity="0.03"/>
<path d="M1275.8 1053.17H1315.39V1092.76H1275.8V1053.17Z" fill="white" fill-opacity="0.01"/>
<path d="M1275.8 1095.69H1315.39V1135.29H1275.8V1095.69Z" fill="white" fill-opacity="0.03"/>
<path d="M1275.8 1180.75H1315.39V1220.34H1275.8V1180.75Z" fill="white" fill-opacity="0.03"/>
<path d="M1275.8 1223.27H1315.39V1262.87H1275.8V1223.27Z" fill="white" fill-opacity="0.03"/>
<path d="M1318.33 -10H1357.92V29.5938H1318.33V-10Z" fill="white" fill-opacity="0.03"/>
<path d="M1318.33 32.5266H1357.92V72.1204H1318.33V32.5266Z" fill="white" fill-opacity="0.01"/>
<path d="M1318.33 75.0533H1357.92V114.647H1318.33V75.0533Z" fill="white" fill-opacity="0.01"/>
<path d="M1318.33 117.58H1357.92V157.174H1318.33V117.58Z" fill="white" fill-opacity="0.01"/>
<path d="M1318.33 160.107H1357.92V199.7H1318.33V160.107Z" fill="white" fill-opacity="0.01"/>
<path d="M1318.33 202.633H1357.92V242.227H1318.33V202.633Z" fill="white" fill-opacity="0.03"/>
<path d="M1318.33 245.16H1357.92V284.754H1318.33V245.16Z" fill="white" fill-opacity="0.01"/>
<path d="M1318.33 287.686H1357.92V327.28H1318.33V287.686Z" fill="white" fill-opacity="0.01"/>
<path d="M1318.33 330.213H1357.92V369.807H1318.33V330.213Z" fill="white" fill-opacity="0.03"/>
<path d="M1318.33 372.74H1357.92V412.333H1318.33V372.74Z" fill="white" fill-opacity="0.03"/>
<path d="M1318.33 415.266H1357.92V454.86H1318.33V415.266Z" fill="white" fill-opacity="0.01"/>
<path d="M1318.33 457.793H1357.92V497.387H1318.33V457.793Z" fill="white" fill-opacity="0.03"/>
<path d="M1318.33 500.32H1357.92V539.913H1318.33V500.32Z" fill="white" fill-opacity="0.01"/>
<path d="M1318.33 585.373H1357.92V624.967H1318.33V585.373Z" fill="white" fill-opacity="0.01"/>
<path d="M1318.33 627.899H1357.92V667.493H1318.33V627.899Z" fill="white" fill-opacity="0.01"/>
<path d="M1318.33 712.953H1357.92V752.547H1318.33V712.953Z" fill="white" fill-opacity="0.01"/>
<path d="M1318.33 755.479H1357.92V795.073H1318.33V755.479Z" fill="white" fill-opacity="0.03"/>
<path d="M1318.33 798.006H1357.92V837.6H1318.33V798.006Z" fill="white" fill-opacity="0.03"/>
<path d="M1318.33 840.533H1357.92V880.126H1318.33V840.533Z" fill="white" fill-opacity="0.03"/>
<path d="M1318.33 883.059H1357.92V922.653H1318.33V883.059Z" fill="white" fill-opacity="0.03"/>
<path d="M1318.33 925.586H1357.92V965.18H1318.33V925.586Z" fill="white" fill-opacity="0.01"/>
<path d="M1318.33 968.112H1357.92V1007.71H1318.33V968.112Z" fill="white" fill-opacity="0.03"/>
<path d="M1318.33 1053.17H1357.92V1092.76H1318.33V1053.17Z" fill="white" fill-opacity="0.01"/>
<path d="M1318.33 1095.69H1357.92V1135.29H1318.33V1095.69Z" fill="white" fill-opacity="0.03"/>
<path d="M1318.33 1138.22H1357.92V1177.81H1318.33V1138.22Z" fill="white" fill-opacity="0.03"/>
<path d="M1318.33 1180.75H1357.92V1220.34H1318.33V1180.75Z" fill="white" fill-opacity="0.01"/>
<path d="M1318.33 1223.27H1357.92V1262.87H1318.33V1223.27Z" fill="white" fill-opacity="0.03"/>
<path d="M1318.33 1265.8H1357.92V1305.39H1318.33V1265.8Z" fill="white" fill-opacity="0.03"/>
<path d="M1360.85 -10H1400.45V29.5938H1360.85V-10Z" fill="white" fill-opacity="0.03"/>
<path d="M1360.85 32.5266H1400.45V72.1204H1360.85V32.5266Z" fill="white" fill-opacity="0.03"/>
<path d="M1360.85 75.0533H1400.45V114.647H1360.85V75.0533Z" fill="white" fill-opacity="0.01"/>
<path d="M1360.85 117.58H1400.45V157.174H1360.85V117.58Z" fill="white" fill-opacity="0.01"/>
<path d="M1360.85 160.107H1400.45V199.7H1360.85V160.107Z" fill="white" fill-opacity="0.03"/>
<path d="M1360.85 202.633H1400.45V242.227H1360.85V202.633Z" fill="white" fill-opacity="0.03"/>
<path d="M1360.85 245.16H1400.45V284.754H1360.85V245.16Z" fill="white" fill-opacity="0.01"/>
<path d="M1360.85 372.74H1400.45V412.333H1360.85V372.74Z" fill="white" fill-opacity="0.03"/>
<path d="M1360.85 415.266H1400.45V454.86H1360.85V415.266Z" fill="white" fill-opacity="0.03"/>
<path d="M1360.85 457.793H1400.45V497.387H1360.85V457.793Z" fill="white" fill-opacity="0.03"/>
<path d="M1360.85 500.32H1400.45V539.913H1360.85V500.32Z" fill="white" fill-opacity="0.03"/>
<path d="M1360.85 585.373H1400.45V624.967H1360.85V585.373Z" fill="white" fill-opacity="0.03"/>
<path d="M1360.85 627.899H1400.45V667.493H1360.85V627.899Z" fill="white" fill-opacity="0.03"/>
<path d="M1360.85 712.953H1400.45V752.547H1360.85V712.953Z" fill="white" fill-opacity="0.03"/>
<path d="M1360.85 798.006H1400.45V837.6H1360.85V798.006Z" fill="white" fill-opacity="0.03"/>
<path d="M1360.85 883.059H1400.45V922.653H1360.85V883.059Z" fill="white" fill-opacity="0.01"/>
<path d="M1360.85 925.586H1400.45V965.18H1360.85V925.586Z" fill="white" fill-opacity="0.01"/>
<path d="M1360.85 1010.64H1400.45V1050.23H1360.85V1010.64Z" fill="white" fill-opacity="0.03"/>
<path d="M1360.85 1053.17H1400.45V1092.76H1360.85V1053.17Z" fill="white" fill-opacity="0.01"/>
<path d="M1360.85 1095.69H1400.45V1135.29H1360.85V1095.69Z" fill="white" fill-opacity="0.03"/>
<path d="M1360.85 1223.27H1400.45V1262.87H1360.85V1223.27Z" fill="white" fill-opacity="0.01"/>
<path d="M1360.85 1265.8H1400.45V1305.39H1360.85V1265.8Z" fill="white" fill-opacity="0.03"/>
</mask>
<g mask="url(#mask0_15_601)">
<g filter="url(#filter0_f_15_601)">
<ellipse cx="668.695" cy="113.181" rx="463.394" ry="502.987" transform="rotate(-90 668.695 113.181)" fill="black"/>
</g>
</g>
<defs>
<filter id="filter0_f_15_601" x="83.9072" y="-432.013" width="1169.57" height="1090.39" filterUnits="userSpaceOnUse" color-interpolation-filters="sRGB">
<feFlood flood-opacity="0" result="BackgroundImageFix"/>
<feBlend mode="normal" in="SourceGraphic" in2="BackgroundImageFix" result="shape"/>
<feGaussianBlur stdDeviation="40.9" result="effect1_foregroundBlur_15_601"/>
</filter>
</defs>
</svg>
