<svg width="52" height="54" viewBox="0 0 52 54" fill="none" xmlns="http://www.w3.org/2000/svg">
<path d="M6.65625 0.53125C8.41667 0.53125 9.77604 1.04688 10.7344 2.07812C11.7031 3.10938 12.1875 4.67188 12.1875 6.76562C12.1875 8.11979 11.9531 9.23958 11.4844 10.125C11.0156 11 10.3229 11.6719 9.40625 12.1406C9.63542 13.0365 9.92188 14.0104 10.2656 15.0625C10.5677 15.9688 10.9427 17.0156 11.3906 18.2031C11.849 19.3906 12.4062 20.6562 13.0625 22H9.76562C9.29688 20.4479 8.90625 19.099 8.59375 17.9531C8.29167 16.7969 8.05208 15.8281 7.875 15.0469C7.66667 14.1406 7.50521 13.3646 7.39062 12.7188H4.21875C4.21875 13.4479 4.22396 14.2031 4.23438 14.9844C4.25521 15.7552 4.27604 16.5365 4.29688 17.3281C4.31771 18.1094 4.34375 18.8958 4.375 19.6875C4.40625 20.4792 4.44271 21.25 4.48438 22H1.5625C1.625 21.1146 1.67188 20.2083 1.70312 19.2812C1.74479 18.3438 1.77604 17.4167 1.79688 16.5C1.81771 15.5729 1.83333 14.6667 1.84375 13.7812C1.85417 12.8958 1.85938 12.0521 1.85938 11.25C1.85938 10.4479 1.85417 9.60417 1.84375 8.71875C1.83333 7.83333 1.81771 6.93229 1.79688 6.01562C1.77604 5.09896 1.74479 4.17708 1.70312 3.25C1.67188 2.32292 1.625 1.41667 1.5625 0.53125H6.65625ZM4.40625 2.28125C4.33333 3.77083 4.28125 5.26562 4.25 6.76562C4.22917 8.25521 4.21875 9.66146 4.21875 10.9844H6.5C6.96875 10.9844 7.38542 10.9115 7.75 10.7656C8.11458 10.6198 8.42188 10.3802 8.67188 10.0469C8.93229 9.71354 9.13021 9.28125 9.26562 8.75C9.40104 8.20833 9.46875 7.54688 9.46875 6.76562C9.46875 5.18229 9.21875 4.04167 8.71875 3.34375C8.22917 2.63542 7.48958 2.28125 6.5 2.28125H4.40625ZM22.7188 22L22.7969 20.1094C22.5469 20.3906 22.2917 20.6719 22.0312 20.9531C21.7708 21.224 21.4792 21.4688 21.1562 21.6875C20.8333 21.8958 20.4635 22.0625 20.0469 22.1875C19.6406 22.3229 19.1562 22.3906 18.5938 22.3906C17.9479 22.3906 17.3438 22.2604 16.7812 22C16.2292 21.7292 15.7448 21.3385 15.3281 20.8281C14.9219 20.3177 14.599 19.6875 14.3594 18.9375C14.1198 18.1771 14 17.3021 14 16.3125C14 15.0521 14.1927 13.974 14.5781 13.0781C14.9635 12.1823 15.5312 11.4219 16.2812 10.7969C17.0417 10.1719 17.9792 9.66667 19.0938 9.28125C20.2188 8.89583 21.5156 8.58333 22.9844 8.34375C22.9844 7.08333 22.9167 6.04167 22.7812 5.21875C22.6562 4.39583 22.4688 3.74479 22.2188 3.26562C21.9688 2.77604 21.6562 2.4375 21.2812 2.25C20.9167 2.0625 20.4948 1.96875 20.0156 1.96875C19.599 1.96875 19.1823 2.03646 18.7656 2.17188C18.349 2.29688 17.9323 2.46875 17.5156 2.6875C17.1094 2.90625 16.6979 3.16146 16.2812 3.45312C15.875 3.73438 15.474 4.03125 15.0781 4.34375V1.3125C15.5156 1.14583 15.9323 0.994792 16.3281 0.859375C16.724 0.713542 17.1198 0.588542 17.5156 0.484375C17.9219 0.380208 18.3281 0.296875 18.7344 0.234375C19.1406 0.171875 19.5729 0.140625 20.0312 0.140625C20.9479 0.140625 21.7448 0.265625 22.4219 0.515625C23.1094 0.765625 23.6771 1.16146 24.125 1.70312C24.5833 2.24479 24.9219 2.94271 25.1406 3.79688C25.3698 4.65104 25.4844 5.67708 25.4844 6.875C25.4844 6.98958 25.4792 7.18229 25.4688 7.45312C25.4688 7.72396 25.4635 8.04167 25.4531 8.40625C25.4531 8.77083 25.4479 9.16146 25.4375 9.57812C25.4375 9.99479 25.4323 10.4062 25.4219 10.8125C25.4219 11.2188 25.4167 11.6042 25.4062 11.9688C25.4062 12.3229 25.4062 12.6198 25.4062 12.8594C25.4062 13.4115 25.4115 14.0365 25.4219 14.7344C25.4323 15.4219 25.4479 16.1562 25.4688 16.9375C25.5 17.7188 25.5312 18.5365 25.5625 19.3906C25.6042 20.2448 25.651 21.1146 25.7031 22H22.7188ZM22.9062 17.7344C22.9375 16.6719 22.9635 15.5365 22.9844 14.3281C23.0052 13.1094 23.0156 11.7188 23.0156 10.1562C21.6927 10.3125 20.625 10.5677 19.8125 10.9219C19 11.276 18.3698 11.7135 17.9219 12.2344C17.474 12.7448 17.1719 13.3281 17.0156 13.9844C16.8594 14.6406 16.7812 15.3542 16.7812 16.125C16.7812 16.7812 16.8385 17.375 16.9531 17.9062C17.0781 18.4375 17.2552 18.8906 17.4844 19.2656C17.7135 19.6302 17.9844 19.9115 18.2969 20.1094C18.6094 20.3073 18.9635 20.4062 19.3594 20.4062C19.8073 20.4062 20.1979 20.3281 20.5312 20.1719C20.875 20.0052 21.1823 19.7969 21.4531 19.5469C21.7344 19.2865 21.9896 19 22.2188 18.6875C22.4479 18.3646 22.6771 18.0469 22.9062 17.7344ZM29.6719 22.4219C29.2031 22.4219 28.7865 22.3958 28.4219 22.3438C28.0573 22.3021 27.8281 22.2708 27.7344 22.25V20.0312C27.7865 20.0521 27.8698 20.0781 27.9844 20.1094C28.1094 20.1406 28.25 20.1719 28.4062 20.2031C28.5729 20.2344 28.75 20.2656 28.9375 20.2969C29.125 20.3177 29.3073 20.3281 29.4844 20.3281C30.0885 20.3281 30.5625 20.1406 30.9062 19.7656C31.2604 19.3802 31.5781 18.7917 31.8594 18C32.0052 17.5729 32.1562 17.1302 32.3125 16.6719C32.4688 16.2031 32.6302 15.7135 32.7969 15.2031C32.526 14.401 32.2292 13.5625 31.9062 12.6875C31.5938 11.8125 31.2708 10.9323 30.9375 10.0469C30.6042 9.15104 30.2708 8.26562 29.9375 7.39062C29.6042 6.50521 29.276 5.65104 28.9531 4.82812C28.6406 4.00521 28.3385 3.22917 28.0469 2.5C27.7656 1.77083 27.5104 1.11458 27.2812 0.53125H30.1875C30.3854 1.33333 30.6354 2.23438 30.9375 3.23438C31.2396 4.23438 31.5573 5.25 31.8906 6.28125C32.2344 7.3125 32.5729 8.32292 32.9062 9.3125C33.2396 10.2917 33.5417 11.1719 33.8125 11.9531C34.1562 10.8177 34.4948 9.68229 34.8281 8.54688C35.1615 7.41146 35.4688 6.33854 35.75 5.32812C36.0312 4.30729 36.276 3.38542 36.4844 2.5625C36.7031 1.72917 36.8698 1.05208 36.9844 0.53125H39.8906C39.5469 1.55208 39.1458 2.73958 38.6875 4.09375C38.2292 5.44792 37.7396 6.91667 37.2188 8.5C36.7083 10.0729 36.1823 11.7292 35.6406 13.4688C35.099 15.1979 34.5729 16.9427 34.0625 18.7031C33.6979 19.9531 33.1667 20.8854 32.4688 21.5C31.7812 22.1146 30.849 22.4219 29.6719 22.4219ZM48.6875 22L48.7656 20.1094C48.5156 20.3906 48.2604 20.6719 48 20.9531C47.7396 21.224 47.4479 21.4688 47.125 21.6875C46.8021 21.8958 46.4323 22.0625 46.0156 22.1875C45.6094 22.3229 45.125 22.3906 44.5625 22.3906C43.9167 22.3906 43.3125 22.2604 42.75 22C42.1979 21.7292 41.7135 21.3385 41.2969 20.8281C40.8906 20.3177 40.5677 19.6875 40.3281 18.9375C40.0885 18.1771 39.9688 17.3021 39.9688 16.3125C39.9688 15.0521 40.1615 13.974 40.5469 13.0781C40.9323 12.1823 41.5 11.4219 42.25 10.7969C43.0104 10.1719 43.9479 9.66667 45.0625 9.28125C46.1875 8.89583 47.4844 8.58333 48.9531 8.34375C48.9531 7.08333 48.8854 6.04167 48.75 5.21875C48.625 4.39583 48.4375 3.74479 48.1875 3.26562C47.9375 2.77604 47.625 2.4375 47.25 2.25C46.8854 2.0625 46.4635 1.96875 45.9844 1.96875C45.5677 1.96875 45.151 2.03646 44.7344 2.17188C44.3177 2.29688 43.901 2.46875 43.4844 2.6875C43.0781 2.90625 42.6667 3.16146 42.25 3.45312C41.8438 3.73438 41.4427 4.03125 41.0469 4.34375V1.3125C41.4844 1.14583 41.901 0.994792 42.2969 0.859375C42.6927 0.713542 43.0885 0.588542 43.4844 0.484375C43.8906 0.380208 44.2969 0.296875 44.7031 0.234375C45.1094 0.171875 45.5417 0.140625 46 0.140625C46.9167 0.140625 47.7135 0.265625 48.3906 0.515625C49.0781 0.765625 49.6458 1.16146 50.0938 1.70312C50.5521 2.24479 50.8906 2.94271 51.1094 3.79688C51.3385 4.65104 51.4531 5.67708 51.4531 6.875C51.4531 6.98958 51.4479 7.18229 51.4375 7.45312C51.4375 7.72396 51.4323 8.04167 51.4219 8.40625C51.4219 8.77083 51.4167 9.16146 51.4062 9.57812C51.4062 9.99479 51.401 10.4062 51.3906 10.8125C51.3906 11.2188 51.3854 11.6042 51.375 11.9688C51.375 12.3229 51.375 12.6198 51.375 12.8594C51.375 13.4115 51.3802 14.0365 51.3906 14.7344C51.401 15.4219 51.4167 16.1562 51.4375 16.9375C51.4688 17.7188 51.5 18.5365 51.5312 19.3906C51.5729 20.2448 51.6198 21.1146 51.6719 22H48.6875ZM48.875 17.7344C48.9062 16.6719 48.9323 15.5365 48.9531 14.3281C48.974 13.1094 48.9844 11.7188 48.9844 10.1562C47.6615 10.3125 46.5938 10.5677 45.7812 10.9219C44.9688 11.276 44.3385 11.7135 43.8906 12.2344C43.4427 12.7448 43.1406 13.3281 42.9844 13.9844C42.8281 14.6406 42.75 15.3542 42.75 16.125C42.75 16.7812 42.8073 17.375 42.9219 17.9062C43.0469 18.4375 43.224 18.8906 43.4531 19.2656C43.6823 19.6302 43.9531 19.9115 44.2656 20.1094C44.5781 20.3073 44.9323 20.4062 45.3281 20.4062C45.776 20.4062 46.1667 20.3281 46.5 20.1719C46.8438 20.0052 47.151 19.7969 47.4219 19.5469C47.7031 19.2865 47.9583 19 48.1875 18.6875C48.4167 18.3646 48.6458 18.0469 48.875 17.7344ZM6.625 49.8438C7.34375 46.8125 7.96354 43.7865 8.48438 40.7656C9.01562 37.7344 9.51562 34.6562 9.98438 31.5312H12.9531C12.6198 32.8021 12.2917 34.1042 11.9688 35.4375C11.6458 36.7708 11.3385 38.1042 11.0469 39.4375C10.7552 40.7604 10.474 42.0677 10.2031 43.3594C9.94271 44.6406 9.69792 45.8698 9.46875 47.0469C9.25 48.2135 9.04688 49.3021 8.85938 50.3125C8.67188 51.3229 8.51042 52.2188 8.375 53H4.67188C4.53646 52.2188 4.375 51.3229 4.1875 50.3125C4 49.3021 3.79167 48.2135 3.5625 47.0469C3.34375 45.8698 3.09896 44.6406 2.82812 43.3594C2.56771 42.0677 2.29167 40.7604 2 39.4375C1.70833 38.1042 1.40104 36.7708 1.07812 35.4375C0.755208 34.1042 0.427083 32.8021 0.09375 31.5312H3.0625C3.53125 34.6562 4.02604 37.7344 4.54688 40.7656C5.06771 43.7865 5.6875 46.8125 6.40625 49.8438H6.625ZM27.5 42.2812C27.5 44.2083 27.3281 45.875 26.9844 47.2812C26.6406 48.6771 26.1615 49.8333 25.5469 50.75C24.9427 51.6562 24.2292 52.3281 23.4062 52.7656C22.5833 53.2031 21.6979 53.4219 20.75 53.4219C19.7917 53.4219 18.901 53.2031 18.0781 52.7656C17.2552 52.3281 16.5365 51.6562 15.9219 50.75C15.3177 49.8333 14.8385 48.6771 14.4844 47.2812C14.1406 45.875 13.9688 44.2083 13.9688 42.2812C13.9688 40.3646 14.1406 38.7083 14.4844 37.3125C14.8385 35.9062 15.3177 34.7448 15.9219 33.8281C16.5365 32.9115 17.2552 32.2344 18.0781 31.7969C18.901 31.3594 19.7917 31.1406 20.75 31.1406C21.6979 31.1406 22.5833 31.3594 23.4062 31.7969C24.2292 32.2344 24.9427 32.9115 25.5469 33.8281C26.1615 34.7448 26.6406 35.9062 26.9844 37.3125C27.3281 38.7083 27.5 40.3646 27.5 42.2812ZM24.8125 42.2812C24.8125 40.6771 24.7083 39.2917 24.5 38.125C24.2917 36.9583 24.0052 36 23.6406 35.25C23.276 34.4896 22.8438 33.9323 22.3438 33.5781C21.8542 33.2135 21.3229 33.0312 20.75 33.0312C20.1667 33.0312 19.625 33.2135 19.125 33.5781C18.6354 33.9323 18.2031 34.4896 17.8281 35.25C17.4635 36 17.1771 36.9583 16.9688 38.125C16.7604 39.2917 16.6562 40.6771 16.6562 42.2812C16.6562 43.8958 16.7604 45.2865 16.9688 46.4531C17.1771 47.6198 17.4635 48.5781 17.8281 49.3281C18.2031 50.0781 18.6354 50.6354 19.125 51C19.625 51.3542 20.1667 51.5312 20.75 51.5312C21.3229 51.5312 21.8542 51.3542 22.3438 51C22.8438 50.6354 23.276 50.0781 23.6406 49.3281C24.0052 48.5781 24.2917 47.6198 24.5 46.4531C24.7083 45.2865 24.8125 43.8958 24.8125 42.2812ZM28.0156 31.5312H38.7188V33.3594H34.7344C34.651 34.8906 34.599 36.4219 34.5781 37.9531C34.5573 39.4844 34.5469 40.9167 34.5469 42.25C34.5469 43.0521 34.5521 43.8958 34.5625 44.7812C34.5729 45.6667 34.5885 46.5729 34.6094 47.5C34.6302 48.4167 34.6562 49.3438 34.6875 50.2812C34.7188 51.2083 34.7604 52.1146 34.8125 53H31.8906C31.9531 52.1146 32 51.2083 32.0312 50.2812C32.0729 49.3438 32.1042 48.4167 32.125 47.5C32.1458 46.5729 32.1615 45.6667 32.1719 44.7812C32.1823 43.8958 32.1875 43.0521 32.1875 42.25C32.1875 40.9167 32.1719 39.4844 32.1406 37.9531C32.1198 36.4219 32.0729 34.8906 32 33.3594H28.0156V31.5312ZM46.7344 51.5938C47.1927 51.5938 47.6042 51.5365 47.9688 51.4219C48.3438 51.3073 48.6875 51.1667 49 51C49.3125 50.8229 49.599 50.6302 49.8594 50.4219C50.1198 50.2031 50.3698 49.9948 50.6094 49.7969V52.875C50.3385 52.9271 50.0625 52.9844 49.7812 53.0469C49.5104 53.1094 49.2031 53.1667 48.8594 53.2188C48.526 53.2708 48.151 53.3177 47.7344 53.3594C47.3177 53.401 46.8385 53.4219 46.2969 53.4219C45.2031 53.4219 44.2188 53.1719 43.3438 52.6719C42.4792 52.1615 41.7396 51.4323 41.125 50.4844C40.5208 49.526 40.0573 48.3646 39.7344 47C39.4115 45.625 39.25 44.0729 39.25 42.3438C39.25 40.6771 39.3854 39.1562 39.6562 37.7812C39.9271 36.3958 40.3229 35.2135 40.8438 34.2344C41.375 33.2552 42.026 32.4948 42.7969 31.9531C43.5781 31.4115 44.4792 31.1406 45.5 31.1406C46.5521 31.1406 47.4531 31.3854 48.2031 31.875C48.9635 32.3542 49.5833 33.0573 50.0625 33.9844C50.5521 34.901 50.9062 36.0312 51.125 37.375C51.3542 38.7188 51.4688 40.2552 51.4688 41.9844V42.5625H42.0312C42.0938 44.2188 42.224 45.6198 42.4219 46.7656C42.6302 47.9115 42.9219 48.8438 43.2969 49.5625C43.6719 50.2812 44.1406 50.8021 44.7031 51.125C45.276 51.4375 45.9531 51.5938 46.7344 51.5938ZM48.7812 40.75C48.7604 40.1458 48.7292 39.5312 48.6875 38.9062C48.6458 38.2812 48.5781 37.6771 48.4844 37.0938C48.401 36.5104 48.2812 35.9635 48.125 35.4531C47.9792 34.9427 47.7865 34.5 47.5469 34.125C47.3073 33.75 47.0156 33.4531 46.6719 33.2344C46.3281 33.0156 45.9219 32.9062 45.4531 32.9062C44.8281 32.9062 44.3073 33.1354 43.8906 33.5938C43.4844 34.0521 43.151 34.651 42.8906 35.3906C42.6406 36.1302 42.4531 36.9688 42.3281 37.9062C42.2031 38.8438 42.1146 39.7917 42.0625 40.75H48.7812Z" fill="white"/>
</svg>
